<?xml version="1.0" standalone="no"?>
<!DOCTYPE svg PUBLIC "-//W3C//DTD SVG 1.1//EN" "http://www.w3.org/Graphics/SVG/1.1/DTD/svg11.dtd" >
<svg xmlns="http://www.w3.org/2000/svg" xmlns:xlink="http://www.w3.org/1999/xlink" version="1.1">
<metadata></metadata>
<defs>
<font id="commissionerregular" horiz-adv-x="1136" >
<font-face units-per-em="2000" ascent="1600" descent="-400" />
<missing-glyph horiz-adv-x="383" />
<glyph unicode="&#xfb01;" horiz-adv-x="1304" d="M49 861v131h689v-131h-195h-191h-68h-235zM237 0v213v225v100v128.5v140.5v151.5v163.5q0 106 28.5 177t79 113t115.5 60.5t139 18.5q36 0 70 -3.5t62.5 -9.5t48.5 -14l-15 -143q-32 12 -68.5 18.5t-76.5 6.5q-117 0 -170.5 -56.5t-53.5 -171.5v-69.5v-56.5l6 -37v-517 v-225v-213h-165zM923 1343q0 61 34 91.5t90 30.5q55 0 88 -31.5t33 -90.5q0 -62 -33 -92t-90 -30q-54 0 -88 30t-34 92zM964 0v213v225v100v164.5v146v143.5l166 6v-145.5v-148v-166.5v-100v-225v-213h-166z" />
<glyph unicode="&#xfb02;" horiz-adv-x="1299" d="M49 862v130h689v-130h-195h-191h-68h-235zM237 0v213v225v100v128.5v140.5v152v163q0 106 28.5 177t79 113t115.5 60.5t139 18.5q34 0 64.5 -3t57 -8t44.5 -11v-148q-32 12 -68.5 18.5t-76.5 6.5q-117 0 -170.5 -56.5t-53.5 -171.5v-69.5v-56.5l6 -37v-517v-225v-213 h-165zM962 0v213v225v549v245v232l165 20v-242.5v-254.5v-549v-225v-213h-165z" />
<glyph horiz-adv-x="0" />
<glyph horiz-adv-x="666" />
<glyph horiz-adv-x="0" />
<glyph horiz-adv-x="0" />
<glyph unicode="&#xd;" horiz-adv-x="383" />
<glyph unicode=" "  horiz-adv-x="383" />
<glyph unicode="&#x09;" horiz-adv-x="383" />
<glyph unicode="&#xa0;" horiz-adv-x="383" />
<glyph unicode="!" horiz-adv-x="472" d="M104 109q0 59 36 94t96 35q42 0 71 -16t45.5 -45t16.5 -68q0 -58 -35.5 -94.5t-97.5 -36.5q-41 0 -70.5 17t-45.5 46t-16 68zM138 1465l200 6q-10 -241 -19 -484.5t-13 -489.5l-136 -2q-3 247 -12.5 488.5t-19.5 481.5z" />
<glyph unicode="&#x22;" horiz-adv-x="743" d="M87 1484l187 5q-10 -151 -19 -305t-12 -309l-125 -2q-3 155 -12 308t-19 303zM426 1484l187 5q-10 -151 -19 -305t-12 -309l-125 -2q-3 155 -12 308t-19 303z" />
<glyph unicode="#" horiz-adv-x="1366" d="M35 308v128h182h164h491h164.5h181.5v-128h-181.5h-164.5h-491h-164h-182zM147 875v128h182h164h492h164.5h181.5v-128h-181.5h-164.5h-492h-164h-182zM239 0q21 102 40 199t45 224l91 457q18 88 32.5 159.5t28 138.5t27.5 139h134q-14 -70 -27.5 -137t-28 -139.5 t-32.5 -161.5l-92 -456q-25 -126 -44 -222.5t-40 -200.5h-134zM716 0q21 102 40 199t44 224l92 456q18 89 32 160.5t27.5 138.5t28.5 139h133q-14 -70 -27.5 -137t-28 -139.5t-31.5 -161.5l-92 -456q-25 -126 -44 -222.5t-41 -200.5h-133z" />
<glyph unicode="$" horiz-adv-x="1124" d="M110 1021q0 107 49.5 191.5t148 133t244.5 48.5q61 0 121 -8.5t113.5 -23.5t99 -33t76.5 -38l-17 -156q-58 39 -123 63.5t-130 36t-122 11.5q-78 0 -147 -23t-111.5 -72.5t-42.5 -128.5q0 -65 36 -107t112.5 -75t196.5 -72q163 -53 257 -107t133.5 -123.5t39.5 -167.5 q0 -111 -49.5 -199.5t-153 -140t-266.5 -51.5q-85 0 -171 15.5t-158.5 39.5t-117.5 50l16 153q64 -35 133.5 -60t142.5 -39t150 -14q89 0 160 24.5t112.5 78.5t41.5 143q0 72 -44 118t-126.5 80t-196.5 70q-130 41 -221 88.5t-138.5 117.5t-47.5 177zM508 62.5v160.5v161 v564v161v160.5v164.5v172h131v-172v-164.5v-160.5v-161v-564v-161.5v-161v-163.5v-172h-131v172.5v164z" />
<glyph unicode="%" horiz-adv-x="1761" d="M69 1096q0 102 48 182.5t132 127t194 46.5q108 0 192 -46.5t131.5 -127t47.5 -182.5q0 -107 -47.5 -186.5t-131.5 -123t-194 -43.5q-108 0 -192 43.5t-132 123t-48 186.5zM201 1095q0 -110 65 -172.5t175 -62.5q114 0 177 62.5t63 172.5q0 70 -28.5 124.5t-82 85 t-127.5 30.5q-112 0 -177 -66.5t-65 -173.5zM391 0q64 110 124.5 216.5t138.5 242.5l284 496q54 94 99 172t86.5 150.5t84.5 148.5h155q-44 -76 -85.5 -148.5t-86 -150.5t-98.5 -172l-285 -496q-78 -136 -138.5 -242.5t-123.5 -216.5h-155zM942 331q0 102 48 182.5t132 127 t194 46.5q108 0 192 -46.5t131.5 -127t47.5 -182.5q0 -107 -47.5 -186.5t-131.5 -123t-194 -43.5q-108 0 -192 43.5t-132 123t-48 186.5zM1074 330q0 -110 65 -172.5t175 -62.5q114 0 177 62.5t63 172.5q0 71 -28.5 125t-82 84.5t-127.5 30.5q-112 0 -177 -66.5t-65 -173.5z " />
<glyph unicode="&#x26;" horiz-adv-x="1468" d="M98 369q0 122 54 210t137.5 149.5t173.5 101.5l73 -109q-80 -36 -142 -84t-97.5 -110.5t-35.5 -141.5q0 -78 34.5 -137.5t101 -92.5t161.5 -33q68 0 128 24t115.5 73.5t109.5 125.5l99 -95l7 -32h-26q-61 -76 -127 -129t-145.5 -81t-179.5 -28q-147 0 -245 52.5t-147 141 t-49 195.5zM291 1118q0 104 47.5 179t127.5 115t178 40q97 0 177 -37t127.5 -108t47.5 -170q0 -84 -30.5 -146t-81.5 -106.5t-110.5 -76.5t-116.5 -56l-75 104q75 30 133.5 66.5t92 87.5t33.5 123q0 84 -54 136.5t-136 52.5q-88 0 -140.5 -57.5t-52.5 -145.5 q0 -75 40.5 -142t128.5 -156l452 -458q90 -90 179 -181l178 -182h-211q-67 67 -135 136t-135 136l-462 466q-94 94 -148 182.5t-54 197.5zM997 426q60 94 115.5 182t112.5 178l140 -88q-66 -93 -131.5 -184t-133.5 -185z" />
<glyph unicode="'" horiz-adv-x="404" d="M87 1484l187 5q-10 -151 -19 -305t-12 -309l-125 -2q-3 155 -12 308t-19 303z" />
<glyph unicode="(" horiz-adv-x="770" d="M118 647q0 160 34 292t95 241t144 197.5t181 159.5l117 -56q-105 -85 -196.5 -200t-148.5 -271t-57 -363q0 -205 57 -361t148.5 -271.5t196.5 -200.5l-117 -56q-98 71 -181 160t-144 198t-95 241t-34 290z" />
<glyph unicode=")" horiz-adv-x="770" d="M81 -186q105 85 197 200.5t148.5 271t56.5 361.5t-56.5 362t-148.5 271.5t-197 200.5l117 56q99 -71 181.5 -160t143.5 -198t95 -241t34 -291t-34 -291t-95 -241t-143.5 -197.5t-181.5 -159.5z" />
<glyph unicode="*" horiz-adv-x="946" d="M55 850q99 56 199 111t200 109q95 65 188.5 128.5t187.5 126.5l62 -103l-200 -110t-198 -109q-94 -64 -188.5 -128t-189.5 -129zM55 1222l61 103q95 -63 188.5 -127.5t189.5 -128.5q98 -54 198 -109l200 -110l-62 -104q-94 65 -187.5 128t-188.5 127q-100 56 -199.5 111 t-199.5 110zM412 581q6 114 11.5 227.5t10.5 228.5q-5 113 -10.5 226.5t-11.5 227.5h122q-6 -114 -11 -227.5t-11 -226.5q5 -115 11 -228.5t11 -227.5h-122z" />
<glyph unicode="+" horiz-adv-x="1176" d="M124 524v147h182h164h237h164.5h181.5v-147h-181.5h-164.5h-237h-164h-182zM513 119v181.5v164.5v266v164.5v181.5h151v-181.5v-164.5v-266v-164.5v-181.5h-151z" />
<glyph unicode="," horiz-adv-x="460" d="M62 -314q39 56 61.5 112t32.5 117t10 132v95v97l84 6q55 -4 80 -41.5t25 -91.5q0 -62 -16.5 -123t-45.5 -117t-65 -102.5t-75 -80.5z" />
<glyph unicode="-" horiz-adv-x="845" d="M124 521v148h157.5h141.5h142h157v-148h-157h-142h-141.5h-157.5z" />
<glyph unicode="." horiz-adv-x="472" d="M104 109q0 59 36 94t96 35q42 0 71 -16t45.5 -45t16.5 -68q0 -58 -35.5 -94.5t-97.5 -36.5q-41 0 -70.5 17t-45.5 46t-16 68z" />
<glyph unicode="/" horiz-adv-x="890" d="M59 0q47 112 91.5 216t103.5 240l211 496q61 142 107.5 250.5t95.5 223.5h164q-33 -77 -64 -150t-65 -152t-76 -176l-210 -492q-58 -136 -102.5 -241t-91.5 -215h-164z" />
<glyph unicode="0" horiz-adv-x="1305" d="M111 688q0 213 60.5 372.5t181 248t299.5 88.5q137 0 238 -51t169 -145t101.5 -224t33.5 -288q0 -217 -61.5 -376.5t-181 -246.5t-293.5 -87q-142 0 -245.5 52.5t-170.5 148.5t-99 225.5t-32 282.5zM287 689q0 -163 37 -290t117.5 -199t212.5 -72q131 0 211 73t117 200 t37 288q0 170 -39 295.5t-120 194.5t-206 69q-129 0 -210 -72t-119 -198.5t-38 -288.5z" />
<glyph unicode="1" horiz-adv-x="855" d="M64 1115q123 66 246.5 131t247.5 131l-5 -159q-112 -61 -223.5 -121t-224.5 -121zM472 0v213v225v430v214v215l86 80l83 -6v-231v-245v-457v-225v-213h-169z" />
<glyph unicode="2" horiz-adv-x="1109" d="M91 1277q45 25 98 47t112 38t120.5 25.5t123.5 9.5q138 0 234.5 -47.5t146.5 -135.5t50 -209q0 -113 -52 -225.5t-154.5 -230t-252.5 -245.5l-223 -189l-25 35h278h228h228v-150h-906v122q61 53 122.5 107t122.5 106q145 126 247.5 235.5t157.5 211.5t55 204 q0 130 -71 195.5t-214 65.5q-48 0 -98.5 -9t-102.5 -26.5t-104 -43.5t-103 -60z" />
<glyph unicode="3" horiz-adv-x="1141" d="M89 89l17 162q54 -30 109.5 -53t110.5 -38.5t108.5 -23.5t103.5 -8q173 0 250 70.5t77 178.5q0 130 -105 198t-293 68h-64.5h-63.5v142h59.5h60.5q127 0 206 33t116.5 89t37.5 127q0 109 -78.5 161t-199.5 52q-47 0 -97.5 -9.5t-102 -27t-103 -43.5t-100.5 -60l-20 165 q44 26 96 49t110 40t118.5 27t120.5 10q128 0 225 -41t151 -116.5t54 -178.5q0 -86 -36 -152.5t-96 -110t-132 -60.5v-17q55 -10 109.5 -35.5t100 -69t73 -105.5t27.5 -146q0 -109 -53 -197t-161 -139.5t-272 -51.5q-64 0 -128 8.5t-124.5 23.5t-114 35.5t-97.5 43.5z" />
<glyph unicode="4" horiz-adv-x="1200" d="M60 316v118q43 60 94 132.5t103.5 146.5t97.5 137l176 250l96 136l96 136h168v-243.5v-238.5v-509v-200v-181h-169v181v200l5 31v450v213.5v212.5l129 40q-57 -82 -111.5 -159t-109.5 -155l-239 -339q-48 -68 -95 -135t-96 -135l-6 61h567h29h116h126.5h110.5v-150 h-110.5h-126.5h-116h-735z" />
<glyph unicode="5" horiz-adv-x="1149" d="M89 89l17 162q54 -30 109.5 -53t110 -38.5t107 -23.5t101.5 -8q172 0 255.5 82.5t83.5 230.5q0 109 -43 174.5t-116.5 95t-163.5 29.5q-78 0 -149 -19t-151 -74l-76 7v214v261.5v242.5h791v-150h-241.5h-241.5h-203l60 58q0 -93 -0.5 -185.5t-1.5 -184.5v-92h17 q57 31 123.5 48.5t139.5 17.5q118 0 215.5 -47.5t156 -144.5t58.5 -245q0 -140 -56.5 -245.5t-168 -164.5t-274.5 -59q-64 0 -127 8.5t-122.5 24t-112.5 35.5t-97 43z" />
<glyph unicode="6" horiz-adv-x="1214" d="M111 657q0 181 36 319.5t106 232t170.5 141t230.5 47.5q53 0 104 -7t98.5 -20t91.5 -30.5t83 -39.5l-20 -160q-40 27 -83.5 47t-88 33t-89 19.5t-87.5 6.5q-135 0 -220 -67.5t-125 -199.5t-40 -326q0 -175 40.5 -291.5t118.5 -175t192 -58.5q109 0 178 46t102 119.5 t33 155.5t-32 149t-99.5 107t-173.5 40q-43 0 -87.5 -8t-90.5 -27.5t-93 -53t-95 -85.5q-17 32 -22 56.5t0 48.5t21 56l29 -2q39 39 82.5 68.5t91 49.5t99.5 30t108 10q133 0 229.5 -54.5t149 -151.5t52.5 -224q0 -124 -52.5 -233.5t-158.5 -178t-265 -68.5q-169 0 -286 78 t-177.5 229t-60.5 372z" />
<glyph unicode="7" horiz-adv-x="1056" d="M50 1222v149h927v-117q-56 -123 -110 -242t-111 -245l-127 -279q-54 -120 -110 -242.5t-111 -245.5h-189q62 136 124.5 271.5t122.5 267.5l191 416q36 76 71 152t69 153l34 -38h-281h-249h-251z" />
<glyph unicode="8" horiz-adv-x="1214" d="M102 384q0 113 45.5 186.5t111.5 114t126 53.5v17q-61 17 -115 57t-88 101.5t-34 142.5q0 103 56 180t159.5 119.5t244.5 42.5q140 0 242.5 -42.5t159 -119.5t56.5 -180q0 -81 -34 -142.5t-88.5 -101.5t-115.5 -57v-17q61 -13 127 -53.5t111.5 -114.5t45.5 -186 q0 -114 -55 -206t-166.5 -146t-282.5 -54q-172 0 -284 54t-167 146t-55 206zM272 399q0 -77 34.5 -138t108.5 -96t193 -35q117 0 191 35t108.5 96t34.5 138q0 90 -44 149.5t-120.5 89t-171.5 29.5q-94 0 -170 -29.5t-120 -89t-44 -149.5zM315 1035q0 -68 34.5 -120t99.5 -82 t159 -30q139 0 215.5 65.5t76.5 166.5q0 105 -80 160t-212 55q-134 0 -213.5 -55t-79.5 -160z" />
<glyph unicode="9" horiz-adv-x="1214" d="M102 918q0 124 53 233.5t158.5 177.5t265.5 68q169 0 285.5 -77.5t177.5 -229t61 -371.5q0 -182 -36.5 -320.5t-106 -231.5t-170.5 -141t-230 -48q-53 0 -104 7.5t-99 20.5t-92 31t-83 39l20 160q41 -27 84 -47t87.5 -33t89.5 -19.5t87 -6.5q136 0 221 67.5t124.5 199.5 t39.5 326q0 175 -40.5 291.5t-118.5 174.5t-191 58q-110 0 -179 -45.5t-101.5 -119t-32.5 -155.5t32 -149t99 -107t173 -40q43 0 87.5 8t91 27.5t93.5 53t94 85.5q17 -32 22.5 -56.5t0 -49t-21.5 -55.5l-28 2q-40 -38 -83.5 -68t-91 -50t-99.5 -30t-108 -10 q-132 0 -229 54.5t-149.5 151.5t-52.5 224z" />
<glyph unicode=":" horiz-adv-x="472" d="M104 109q0 59 36 94t96 35q42 0 71 -16t45.5 -45t16.5 -68q0 -58 -35.5 -94.5t-97.5 -36.5q-41 0 -70.5 17t-45.5 46t-16 68zM104 887q0 59 36 94t96 35q42 0 71 -16t45.5 -45t16.5 -68q0 -58 -35.5 -94.5t-97.5 -36.5q-41 0 -70.5 17t-45.5 46t-16 68z" />
<glyph unicode=";" horiz-adv-x="472" d="M75 -314q39 56 61.5 112t32.5 117t10 132v95v97l84 6q55 -4 80 -41.5t25 -91.5q0 -62 -16.5 -123t-45.5 -117t-65 -102.5t-75 -80.5zM104 887q0 59 36 94t96 35q42 0 71 -16t45.5 -45t16.5 -68q0 -58 -35.5 -94.5t-97.5 -36.5q-41 0 -70.5 17t-45.5 46t-16 68z" />
<glyph unicode="&#x3c;" d="M124 521v150q93 40 181 77t164 69l196 83q78 33 166.5 70t181.5 77v-158q-107 -45 -216.5 -92t-219.5 -93l-231 -99v-18l231 -98q109 -46 219.5 -93t216.5 -93v-157q-93 39 -181.5 76t-167.5 70l-196 84q-76 32 -164 69t-180 76z" />
<glyph unicode="=" d="M129 300v148h182h164h186h165h181v-148h-181h-165h-186h-164h-182zM129 748v147h182h164h186h165h181v-147h-181h-165h-186h-164h-182z" />
<glyph unicode="&#x3e;" d="M124 146v157q106 46 216.5 93t219.5 93l230 98v18l-230 98l-220 94t-216 92v158q93 -39 181.5 -76.5t165.5 -70.5l197 -83q76 -32 164 -69.5t181 -76.5v-150q-93 -39 -181 -76t-164 -69l-197 -84q-77 -33 -165.5 -70t-181.5 -76z" />
<glyph unicode="?" horiz-adv-x="856" d="M79 1424q27 12 62 24.5t77 24t89.5 18.5t99.5 7q106 0 184 -31t121 -94t43 -156q0 -92 -39.5 -160t-98 -119t-116.5 -93q-65 -47 -114 -93.5t-49 -104.5q0 -63 40.5 -87.5t94.5 -24.5q37 0 67.5 8t50.5 16l7 -92q-18 -7 -44.5 -12.5t-57.5 -9.5t-63 -4 q-117 0 -181.5 54.5t-64.5 144.5q0 64 29.5 112.5t76.5 88.5t100 78q50 37 95.5 76t75 86.5t29.5 107.5q0 81 -56.5 123t-158.5 42q-46 0 -93.5 -9t-97 -26.5t-98.5 -43.5zM262 109q0 59 36 94t97 35q41 0 70.5 -16t45.5 -45t16 -68q0 -58 -35 -94.5t-98 -36.5 q-40 0 -69.5 17t-46 46t-16.5 68z" />
<glyph unicode="@" horiz-adv-x="1765" d="M118 336q-36 171 2 354q36 172 113.5 296.5t187 205.5t241.5 120t276 39q186 0 332 -67t242.5 -185.5t133 -273.5t2.5 -331q-19 -100 -60 -170t-92 -114.5t-104.5 -65t-98.5 -20.5q-77 0 -128 22.5t-80.5 57t-40.5 72.5h-14q-50 -69 -123 -101t-137 -32 q-118 0 -189.5 65.5t-95 171.5t1.5 228q23 109 75.5 191.5t128.5 128.5t169 46q57 0 105 -16t86 -43.5t65 -62.5h15l25 102l125 9q-23 -113 -48.5 -235.5t-52.5 -245.5l-8 -40q-22 -109 11 -156t102 -47q43 0 82 20t72 56.5t57.5 88t36.5 113.5q31 152 2 283.5t-109 230.5 t-204.5 154t-286.5 55q-176 0 -319.5 -63.5t-241.5 -190.5t-139 -317q-35 -161 -6 -309t119.5 -263.5t240 -182t356.5 -66.5q79 0 171 13.5t191.5 50t203.5 104.5v-128q-81 -53 -175.5 -86.5t-194 -49t-196.5 -15.5q-235 0 -407.5 79t-278 214t-141.5 306zM620 427 q14 -72 60 -115t125 -43q62 0 120.5 34.5t101.5 109.5l70 332q-38 44 -88.5 72t-119.5 28q-109 0 -175 -74t-90 -185q-18 -87 -4 -159z" />
<glyph unicode="A" horiz-adv-x="1380" d="M59 0q42 115 87.5 242t87.5 241l177 490q47 132 86 238.5t78 214.5h238q39 -110 77 -216t85 -238l176 -491q42 -118 86.5 -242.5t85.5 -238.5h-188q-43 125 -88.5 257.5t-85.5 249.5l-260 756h-17l-262 -749q-43 -122 -89 -255.5t-91 -258.5h-183zM323 358l16 142h722 l13 -142h-751z" />
<glyph unicode="B" horiz-adv-x="1291" d="M185 0v229v242v479v245v231h247.5h276.5q125 0 212.5 -23.5t142.5 -67t81 -105.5t26 -140q0 -91 -33 -159t-89.5 -113t-128.5 -67v-18q74 -14 140 -52t107 -108.5t41 -180.5q0 -84 -28.5 -155.5t-94 -124.5t-177 -82.5t-279.5 -29.5h-185h-151h-108zM322 649v145h349 q110 0 179.5 36t101.5 94t32 127q0 117 -72.5 171t-215.5 54h-334v-173v-189v-409v-185v-170h281q136 0 219.5 31t121 88t37.5 136q0 131 -92 187.5t-258 56.5h-349z" />
<glyph unicode="C" horiz-adv-x="1370" d="M100 715q0 216 89 382.5t247 260.5t368 94q71 0 138 -10t127 -27t111 -37t88 -41l-16 -174q-78 46 -151.5 74.5t-144 41.5t-137.5 13q-154 0 -274 -70t-188.5 -199.5t-68.5 -308.5q0 -119 35.5 -224t106 -185t175 -125.5t243.5 -45.5q51 0 102 6.5t101 20.5t98.5 37.5 t95.5 55.5l14 -172q-42 -27 -92.5 -47t-106 -32.5t-113.5 -18.5t-116 -6q-169 0 -304.5 55t-230.5 154.5t-145.5 234t-50.5 293.5z" />
<glyph unicode="D" horiz-adv-x="1473" d="M185 0v229v242v478v246.5v230.5h172h163h166q165 0 293 -47.5t215.5 -139t133 -222.5t45.5 -298q0 -151 -40 -281.5t-127.5 -229t-229 -153.5t-344.5 -55h-159h-142.5h-145.5zM366 151h267q204 0 325 74.5t174 204t53 292.5q0 125 -31.5 227t-96 175t-165 112t-237.5 39 h-289v-171.5v-187.5v-410v-185v-170z" />
<glyph unicode="E" horiz-adv-x="1187" d="M185 0v229v242v479v245v231h886v-155h-214.5h-270.5h-324l100 129v-231.5v-244.5v-426v-241.5v-229.5l-90 128h330h247.5h223.5v-155h-888zM323 647v151h277h238h193v-151h-197.5h-234.5h-276z" />
<glyph unicode="F" horiz-adv-x="1147" d="M185 0v229v242v478v246.5v230.5h869v-156h-214.5h-269.5h-284l77 130v-231.5v-245.5v-452v-242v-229h-178zM320 638v151h263h238h193v-151h-198.5h-234.5h-261z" />
<glyph unicode="G" horiz-adv-x="1466" d="M100 716q0 215 88.5 381.5t250 260.5t380.5 94q75 0 145.5 -10t133 -27.5t115 -37.5t90.5 -40l-16 -174q-83 46 -161 74.5t-152 41.5t-144 13q-119 0 -218.5 -39t-172.5 -114t-112.5 -182t-39.5 -242q0 -122 34.5 -228t106 -186t182.5 -124.5t263 -44.5q56 0 112 5.5 t110.5 18t107.5 32t103 46.5l21 -170q-34 -16 -84.5 -31t-112.5 -27.5t-130.5 -19.5t-139.5 -7q-186 0 -327.5 55.5t-237.5 155.5t-145.5 234.5t-49.5 291.5zM1156 61v185v158v166v146h171v-146v-166v-157.5v-182.5z" />
<glyph unicode="H" horiz-adv-x="1499" d="M185 0v229v242v478v246.5v230.5h181v-230.5v-246.5v-478v-242v-229h-181zM303 644v156h899v-156h-899zM1133 0v229v242v478v246.5v230.5h181v-230.5v-246.5v-478v-242v-229h-181z" />
<glyph unicode="I" horiz-adv-x="559" d="M188 0v229v242v478v246.5v230.5h184v-230.5v-246.5v-478v-242v-229h-184z" />
<glyph unicode="J" horiz-adv-x="582" d="M30 -316q58 65 99 131t62.5 143t21.5 178v411v402v246.5v230.5h182v-230.5v-246.5v-357v-243v-230q0 -81 -14.5 -146.5t-39.5 -118t-57.5 -94t-67.5 -76.5h-186z" />
<glyph unicode="K" horiz-adv-x="1342" d="M185 0v229v242v478v246.5v230.5h181v-230.5v-246.5v-478v-242v-229h-181zM345 663v149h97l235 245q83 86 164 171t188 198h220q-110 -113 -214.5 -221.5t-208.5 -216.5l-264 -275l-3 80l293 -323q69 -74 146.5 -160t152.5 -167t131 -143h-227q-95 103 -178.5 193.5 t-162.5 176.5l-271 293h-98z" />
<glyph unicode="L" horiz-adv-x="1145" d="M185 0v229v242v478v246.5v230.5h181v-230.5v-246.5v-450v-242v-229l-68 133h262h201.5h162h152.5v-161h-891z" />
<glyph unicode="M" horiz-adv-x="1915" d="M134 0q14 116 28.5 229t30.5 246l59 470q16 131 30 244t30 237h182q62 -152 120 -293.5t115 -281.5l226 -554h14l224 553q57 142 114 282t118 294h182q15 -122 28.5 -235t30.5 -245l58 -475q16 -130 30 -241.5t28 -229.5h-173q-23 190 -44 361t-39 319l-52 426h-13 l-181 -459q-66 -167 -132 -334.5t-123 -312.5h-123q-36 91 -80 200t-90.5 223t-90.5 221l-187 462h-13l-52 -425q-18 -149 -38.5 -320t-43.5 -361h-173z" />
<glyph unicode="N" horiz-adv-x="1508" d="M185 0v229v242v478v246.5v230.5h163q128 -180 246 -347t233 -329l309 -436h15v635v246.5v230.5h172v-230.5v-246.5v-478v-242v-229h-161q-106 150 -223 315.5t-257 363.5l-311 439h-14v-647v-242v-229h-172z" />
<glyph unicode="O" horiz-adv-x="1634" d="M100 714q0 208 84.5 375t244.5 265t389 98q174 0 307.5 -57t224.5 -158t137 -235t46 -287q0 -211 -84 -377.5t-243 -263t-382 -96.5q-181 0 -317 58.5t-226.5 161t-135.5 235.5t-45 281zM288 715q0 -116 32 -220t97.5 -185.5t165.5 -128.5t236 -47q137 0 236 47.5 t163.5 129.5t95.5 186.5t31 217.5q0 122 -33.5 227.5t-100 185t-164.5 124t-228 44.5q-134 0 -233.5 -47t-165.5 -128.5t-99 -186t-33 -219.5z" />
<glyph unicode="P" horiz-adv-x="1255" d="M185 0v229v242v479v245v231h209.5h294.5q163 0 269.5 -43t159.5 -133.5t53 -231.5q0 -131 -48.5 -232.5t-162 -159.5t-309.5 -58h-107h-111h-94v150h278q128 0 209.5 30t120.5 96t39 173q0 88 -28.5 140t-75 77.5t-100.5 33.5t-105 8h-402l88 124v-231.5v-244.5v-453 v-242v-229h-178z" />
<glyph unicode="Q" horiz-adv-x="1634" d="M100 714q0 208 84.5 375t244.5 265t389 98q174 0 307.5 -57t224.5 -158t137 -235t46 -287q0 -211 -84 -377.5t-243 -263t-382 -96.5q-181 0 -317 58.5t-226.5 161t-135.5 235.5t-45 281zM288 715q0 -116 32 -220t97.5 -185.5t165.5 -128.5t236 -47q137 0 236 47.5 t163.5 129.5t95.5 186.5t31 217.5q0 122 -33.5 227.5t-100 185t-164.5 124t-228 44.5q-134 0 -233.5 -47t-165.5 -128.5t-99 -186t-33 -219.5zM879 5l99 104l200 -155q65 -51 130.5 -101.5t144.5 -112.5l-162 -77q-63 53 -125.5 104.5t-125.5 103.5z" />
<glyph unicode="R" horiz-adv-x="1340" d="M185 0v229v242v479v245v231h131.5h163h187.5q163 0 271.5 -38.5t163 -123.5t54.5 -224q0 -117 -45.5 -214t-151.5 -155.5t-287 -59.5l57 79l225 -281q53 -65 112 -139t115 -144.5t100 -125.5h-212q-71 90 -136.5 174t-129.5 164l-256 330l111 -89h-327v149h271 q125 0 206 29t121 93.5t40 171.5q0 89 -28.5 140.5t-75 75.5t-100.5 31t-104 7h-420l121 124v-234v-242v-453v-242v-229h-177z" />
<glyph unicode="S" horiz-adv-x="1173" d="M109 1064q0 111 52.5 199t156.5 138.5t258 50.5q64 0 126.5 -9t119.5 -24.5t104 -34.5t80 -39l-18 -172q-61 41 -129 68.5t-135 41t-124 13.5q-81 0 -149 -24t-109.5 -73.5t-41.5 -127.5q0 -68 35 -113t110.5 -80.5t194.5 -73.5q172 -54 270.5 -109.5t140 -128.5 t41.5 -179q0 -117 -51.5 -209t-160.5 -146t-281 -54q-89 0 -179.5 16.5t-167 41t-123.5 49.5l17 171q67 -37 139.5 -64.5t148 -42.5t154.5 -15q89 0 160.5 24.5t113 78t41.5 140.5q0 76 -43 125.5t-124.5 85.5t-197.5 72q-136 43 -232 93t-146.5 123.5t-50.5 187.5z" />
<glyph unicode="T" horiz-adv-x="1282" d="M62 1265v161h1158v-161h-177h-215h-169l73 135v-231.5v-245.5v-452v-242v-229h-181v229v242v452v245.5v231.5l72 -135h-169h-214.5h-177.5z" />
<glyph unicode="U" horiz-adv-x="1461" d="M166 530v108.5v147.5v163v246.5v230.5h180v-230.5v-246.5v-401q0 -129 38 -222t122.5 -142.5t224.5 -49.5q141 0 224.5 49.5t120.5 142.5t37 224v399v246.5v230.5h180v-230.5v-246.5v-163.5v-148.5v-107q0 -166 -59 -290.5t-183 -193t-320 -68.5q-199 0 -323.5 68.5 t-183 193t-58.5 290.5z" />
<glyph unicode="V" horiz-adv-x="1373" d="M54 1426h201q52 -153 112 -327t112 -327l201 -585h17l203 588q53 156 111 324t112 327h194q-30 -86 -62.5 -177.5t-64.5 -181t-59 -166.5l-160 -450q-37 -104 -79 -223t-81 -228h-246q-38 107 -81.5 228t-80.5 224l-160 447q-27 77 -59.5 166.5t-65.5 182.5t-64 178z" />
<glyph unicode="W" horiz-adv-x="2040" d="M55 1426h200q42 -153 87 -322t86 -322l153 -568h17l149 575q26 99 54.5 208.5l57 219t54.5 209.5h210q40 -153 84 -318.5t85 -320.5l152 -573h17l155 576q40 149 85 318t85 318h201q-37 -127 -77.5 -267t-75.5 -258l-130 -450q-31 -107 -65.5 -227.5t-65.5 -223.5h-232 q-40 147 -84.5 310t-83.5 306l-152 556h-18l-149 -556q-38 -144 -82 -308t-83 -308h-224q-30 106 -65 227t-65 224l-128 446q-34 119 -75 261.5t-77 267.5z" />
<glyph unicode="X" horiz-adv-x="1357" d="M72 1426h209q63 -96 122 -188.5t113 -175.5l138 -215h17l135 217q53 83 110.5 176t115.5 186h204q-71 -114 -136 -217t-120 -190l-205 -327v58l212 -312q78 -114 150 -219.5t149 -218.5h-216q-63 95 -119.5 179.5t-109.5 162.5l-172 258h-18l-161 -259 q-51 -83 -102.5 -165t-109.5 -176h-205q60 97 122 197t130 209l219 352v-53l-191 292q-67 101 -134.5 204t-146.5 225z" />
<glyph unicode="Y" horiz-adv-x="1304" d="M55 1426h207q55 -96 94 -165t74 -130.5t77 -135.5l138 -243h18l134 234q45 79 81.5 143t76.5 133.5t94 163.5h203q-51 -87 -101.5 -172.5t-99.5 -168.5l-311 -528h-172l-311 527q-50 84 -96 162.5t-106 179.5zM564 0v229v242v237h181v-237v-242v-229h-181z" />
<glyph unicode="Z" horiz-adv-x="1343" d="M96 0v104q56 74 126.5 166t142 185t131.5 171l543 709l42 -64h-407h-267.5h-294.5v155h1119v-130q-94 -121 -183.5 -238t-179.5 -234l-573 -745l-27 76h372h198h214.5h186.5v-155h-1143z" />
<glyph unicode="[" horiz-adv-x="745" d="M191 -4.5v241.5v819v245.5v231.5h520v-139h-138.5h-175.5h-125l74 112v-230.5v-245.5v-765v-242v-229l-65 110h126h159.5h145.5v-138h-521v229.5z" />
<glyph unicode="\" horiz-adv-x="890" d="M59 1426h164q49 -115 95.5 -223.5t106.5 -250.5l212 -496q58 -136 102.5 -240t92.5 -216h-164q-48 112 -92.5 216t-102.5 240l-210 492q-41 97 -75 176t-65.5 152t-63.5 150z" />
<glyph unicode="]" horiz-adv-x="745" d="M32 1394v139h521v-229v-242v-819v-245v-232h-519v138h139h175h124l-73 -112v232.5v244.5v765v242.5v228.5l65 -111h-127h-158.5h-146.5z" />
<glyph unicode="^" horiz-adv-x="1217" d="M121 764q96 153 192 304t192 303h207q96 -152 192.5 -305t191.5 -306l-159 -2q-79 118 -159.5 235.5t-160.5 234.5h-17q-80 -115 -160 -231.5t-159 -232.5h-160z" />
<glyph unicode="_" horiz-adv-x="804" d="M-20 -104h182h164h152h164.5h181.5v-138h-181.5h-164.5h-152h-164h-182v138z" />
<glyph unicode="`" horiz-adv-x="1200" d="M292 1552l184 4q68 -99 136 -198.5t136 -201.5l-134 -2q-53 66 -106.5 131.5t-107 132.5t-108.5 134z" />
<glyph unicode="a" horiz-adv-x="1046" d="M106 267q0 81 29 136.5t76 90.5t104 54.5t114 29.5l311 54v23q0 83 -26 129q-30 52 -85.5 70t-122.5 18q-34 0 -73 -5t-82.5 -15.5t-91.5 -26.5t-101 -39l-9 151q36 15 81.5 29t97 25.5t105.5 17.5t109 6q111 0 191.5 -35t123.5 -110t43 -196v-117v-135v-129v-138.5 v-154.5h-150l-9 141h-16q-31 -40 -78 -77t-108.5 -60.5t-134.5 -23.5q-89 0 -156 34.5t-104.5 98.5t-37.5 154zM274 274q0 -86 51.5 -121.5t126.5 -35.5q53 0 106 22t99.5 65.5t78.5 109.5l1 214q-16 -9 -42.5 -18t-79 -20.5t-145.5 -28.5q-57 -10 -101 -32.5t-69.5 -61 t-25.5 -93.5z" />
<glyph unicode="b" horiz-adv-x="1183" d="M172 0v213v225v549v245v232l165 20v-242.5v-254.5v-106h17q28 37 72.5 67.5t102.5 49t126 18.5q136 0 231.5 -67.5t145.5 -184.5t50 -265q0 -139 -46.5 -257.5t-141 -191t-236.5 -72.5q-69 0 -127 18.5t-106 53t-87 83.5h-16l-14 -133h-136zM337 288q30 -51 69.5 -87 t89.5 -55.5t112 -19.5q107 0 174.5 53t99 137.5t31.5 181.5q0 101 -33.5 184.5t-101.5 133.5t-173 50q-52 0 -102 -15.5t-92.5 -46t-73.5 -75.5v-441z" />
<glyph unicode="c" horiz-adv-x="989" d="M100 497q0 147 56.5 264.5t165 185.5t264.5 68q58 0 114.5 -10t106.5 -26.5t89 -38.5l-15 -152q-56 32 -105.5 49.5t-92 24t-78.5 6.5q-152 0 -244 -99.5t-92 -268.5q0 -106 40.5 -191.5t122 -135t202.5 -49.5q43 0 85.5 8t84.5 23.5t81 40.5l14 -151q-33 -18 -77 -32.5 t-98.5 -23.5t-119.5 -9q-161 0 -273.5 68t-171.5 185t-59 264z" />
<glyph unicode="d" horiz-adv-x="1155" d="M101 499q0 148 50 265t145.5 184.5t231.5 67.5q69 0 126.5 -18.5t101.5 -49t73 -67.5h17v106v244.5v232.5l165 20v-242.5v-254.5v-549v-225v-213h-144l-8 136h-16q-39 -51 -87 -86t-105.5 -53.5t-125.5 -18.5q-142 0 -236 72.5t-141 191t-47 257.5zM270 498 q0 -97 32 -181.5t99 -137.5t174 -53q62 0 112 19.5t89.5 55.5t69.5 87v441q-31 45 -73.5 75.5t-92.5 46t-102 15.5q-105 0 -173 -50t-101.5 -133.5t-33.5 -184.5z" />
<glyph unicode="e" horiz-adv-x="1055" d="M100 502q0 150 55 266t158 181.5t246 65.5q126 0 216.5 -49t139.5 -143.5t49 -233.5q0 -37 -1.5 -66.5t-6.5 -59.5l-145 73q2 16 2.5 30.5t0.5 28.5q0 141 -70 214.5t-183 73.5q-91 0 -156.5 -46.5t-101.5 -128.5t-36 -187v-23q0 -116 40 -200t121.5 -129.5t207.5 -45.5 q47 0 99.5 7.5t104 23.5t98.5 42l7 -149q-38 -21 -88 -36.5t-110 -24t-127 -8.5q-178 0 -293 68t-171 186t-56 270zM169 463v118l686 6l101 -38v-86h-787z" />
<glyph unicode="f" horiz-adv-x="790" d="M49 861v131h689v-131h-195h-191h-68h-235zM237 0v213v225v100v128.5v140.5v151.5v163.5q0 106 28.5 177t79 113t115.5 60.5t139 18.5q36 0 70 -3.5t62.5 -9.5t48.5 -14l-15 -143q-32 12 -68.5 18.5t-76.5 6.5q-117 0 -170.5 -56.5t-53.5 -171.5v-69.5v-56.5l6 -37v-517 v-225v-213h-165z" />
<glyph unicode="g" horiz-adv-x="1084" d="M96 691q0 97 47.5 170t135 113.5t205.5 40.5q48 0 83.5 -5t73.5 -10.5t93 -5.5h309v-124h-193h-189l47 78q88 -42 126.5 -111.5t38.5 -156.5q0 -98 -40 -165.5t-113 -109t-170 -63.5q-105 -25 -156 -45.5t-51 -61.5q0 -29 21 -45t66.5 -23t120.5 -7h43q138 0 226 -21.5 t130.5 -71.5t42.5 -133q0 -86 -45 -150.5t-120 -106.5t-163.5 -62.5t-176.5 -20.5q-111 0 -185 20t-117 54t-61.5 75.5t-18.5 84.5q0 67 33 112.5t77 71.5t77 36v14q-17 5 -41 21.5t-43 46.5t-19 76q0 35 13.5 65t41.5 53t69 40v15q-23 8 -59 30t-72.5 59.5t-61.5 92.5 t-25 130zM251 679q0 -66 32.5 -112t83 -73t106.5 -35q37 6 79.5 18.5t80 35.5t61.5 61t24 96q0 72 -37 117t-91.5 66.5t-105.5 21.5q-61 0 -114 -21.5t-86 -65t-33 -109.5zM259 -137q0 -26 12.5 -50.5t41 -43.5t75 -30t114.5 -11q110 0 184.5 30.5t111.5 72.5t37 78 q0 38 -22 63t-82 37.5t-174 12.5h-37q-64 -1 -124 -21t-98.5 -55.5t-38.5 -82.5z" />
<glyph unicode="h" horiz-adv-x="1146" d="M172 0v213v225v549v245v232l165 20v-241.5v-255.5v-160h18q30 42 77.5 86t113 73.5t149.5 29.5q158 0 231 -91t73 -264v-115v-108v-222.5v-215.5h-165v214.5v216.5v188q0 119 -42.5 180t-153.5 61q-67 0 -122 -27t-99.5 -72.5t-79.5 -100.5v-229v-218.5v-212.5h-165z" />
<glyph unicode="i" horiz-adv-x="514" d="M132 1343q0 61 34 91.5t90 30.5q55 0 88 -31.5t33 -90.5q0 -62 -33 -92t-90 -30q-54 0 -88 30t-34 92zM174 0v213v225v100v164.5v146v143.5l166 6v-145.5v-148v-166.5v-100v-225v-213h-166z" />
<glyph unicode="j" horiz-adv-x="510" d="M10 -390q58 63 94.5 128.5t53 143t16.5 179.5v377v100v164.5v146v143.5l166 6v-145.5v-148v-166.5v-203v-158v-139q0 -75 -10.5 -138t-31 -115t-48.5 -94t-63 -75zM132 1343q0 61 34 91.5t90 30.5q55 0 88 -31.5t33 -90.5q0 -62 -33 -92t-90 -30q-54 0 -88 30t-34 92z " />
<glyph unicode="k" horiz-adv-x="1084" d="M172 0v213v225v549v245v232l165 20v-241.5v-255.5v-575v-209v-203h-165zM318 442v118h80l144 153q66 69 133 139.5t132 139.5h204q-86 -87 -171 -174t-169 -174l-169 -172l-6 80l196 -202q89 -88 177.5 -175.5t175.5 -174.5h-215q-67 68 -135.5 136t-135.5 135l-171 171 h-70z" />
<glyph unicode="l" horiz-adv-x="508" d="M172 0v213v225v549v245v232l165 20v-242.5v-254.5v-549v-225v-213h-165z" />
<glyph unicode="m" horiz-adv-x="1745" d="M172 0v213v225v100v225v229l144 10l5 -182h18q31 44 78.5 89.5t112.5 76t149 30.5q122 0 187.5 -60.5t85.5 -173.5l10 -6q4 -27 6.5 -55.5t2.5 -59.5v-115v-108v-222.5v-215.5h-165v214.5v216.5v188q0 119 -40 180t-145 61q-64 0 -115.5 -27.5t-93 -73t-75.5 -99.5v-229 v-218.5v-212.5h-165zM939 816h18q34 46 83.5 92.5t115.5 77t150 30.5q156 0 223.5 -93t67.5 -262v-115v-108v-222.5v-215.5h-165v214.5v216.5v188q0 119 -40 180t-145 61q-63 0 -114.5 -27t-94 -72.5t-75.5 -100.5z" />
<glyph unicode="n" horiz-adv-x="1146" d="M172 0v213v225v100v225v229l144 10l5 -184h18q32 45 82 91t118 76.5t156 30.5q158 0 231 -91t73 -264v-115v-108v-222.5v-215.5h-165v214.5v216.5v188q0 119 -42.5 180t-153.5 61q-67 0 -122 -27t-99.5 -72.5t-79.5 -100.5v-229v-218.5v-212.5h-165z" />
<glyph unicode="o" horiz-adv-x="1195" d="M100 502q0 149 60.5 264.5t172 182.5t265.5 67q119 0 211 -39t156 -109t97 -163.5t33 -202.5q0 -147 -60 -266t-170.5 -188.5t-263.5 -69.5q-123 0 -216.5 42.5t-156.5 115.5t-95.5 167.5t-32.5 198.5zM269 502q0 -98 36.5 -185t110.5 -141t185 -54q109 0 181 54t108 141 t36 185q0 112 -40 195t-113 129t-173 46q-108 0 -182 -49t-111.5 -133t-37.5 -188z" />
<glyph unicode="p" horiz-adv-x="1183" d="M172 54v484v225v229l150 10l4 -129h17q30 39 76 71.5t105.5 52t130.5 19.5q136 0 231.5 -67.5t145.5 -184.5t50 -265q0 -139 -46.5 -257.5t-141 -191t-236.5 -72.5q-66 0 -122 17.5t-101.5 50t-82.5 79.5h-15v-78v-218.5v-212.5l-165 -6v215.5v228.5zM337 288 q30 -51 69.5 -87t89.5 -55.5t112 -19.5q107 0 174.5 53t99 137.5t31.5 181.5q0 101 -33.5 184.5t-101.5 133.5t-173 50q-52 0 -102 -15.5t-92.5 -46t-73.5 -75.5v-441z" />
<glyph unicode="q" horiz-adv-x="1169" d="M101 499q0 148 50 265t145.5 184.5t231.5 67.5q71 0 130.5 -19.5t105.5 -52t76 -71.5h17l4 119l150 10v-229.5v-234.5v-484v-225v-213l-165 -6v215v222v79h-14q-38 -47 -84 -80t-101.5 -50.5t-121.5 -17.5q-142 0 -236 72.5t-141 191t-47 257.5zM270 498q0 -97 32 -181.5 t99 -137.5t174 -53q62 0 112 19.5t89.5 55.5t69.5 87v441q-31 45 -73.5 75.5t-92.5 46t-102 15.5q-105 0 -173 -50t-101.5 -133.5t-33.5 -184.5z" />
<glyph unicode="r" horiz-adv-x="799" d="M172 0v213v225v100v225v229l144 10l5 -202h17q41 91 94.5 137.5t108.5 62.5t101 16q28 0 56 -4t53 -13l-15 -166q-33 6 -59.5 10t-61.5 4q-29 0 -65.5 -8.5t-75 -35t-74.5 -79t-63 -139.5v-154v-218.5v-212.5h-165z" />
<glyph unicode="s" horiz-adv-x="910" d="M114 52l13 155q46 -26 98.5 -45.5t109 -30t113.5 -10.5q55 0 101.5 12.5t74 46t27.5 97.5q0 42 -24 69t-80.5 49t-152.5 49q-79 22 -141 54t-97.5 86t-35.5 141q0 135 88.5 212.5t238.5 77.5q62 0 120 -10.5t107 -27.5t85 -36l-14 -155q-48 30 -99 49.5t-98 28t-83 8.5 q-41 0 -81.5 -11.5t-67.5 -42t-27 -87.5q0 -41 19 -69t66 -50t130 -46q99 -29 169.5 -60.5t108.5 -82.5t38 -141q0 -87 -38 -155.5t-119 -108.5t-211 -40q-62 0 -124.5 10t-117.5 26.5t-96 37.5z" />
<glyph unicode="t" horiz-adv-x="820" d="M49 861v131h702v-131h-201.5h-197.5h-68h-235zM240 298v172.5v168v159v146.5v189v181l163 36v-137v-127v-142v-607q0 -107 45.5 -161t139.5 -54q37 0 81 12.5t78 39.5l14 -145q-20 -15 -54 -26.5t-75 -18t-84 -6.5q-99 0 -168 34.5t-104.5 105t-35.5 180.5z" />
<glyph unicode="u" horiz-adv-x="1117" d="M147 333v114.5v95.5v163.5v143.5v142l165 7v-216v-223v-188q0 -118 43 -179.5t153 -61.5q64 0 117 27.5t97 72.5t80 100v229v220v212h165v-214v-235v-105v-225v-213h-144l-6 175h-18q-31 -45 -80.5 -90.5t-116.5 -76t-151 -30.5q-158 0 -231 91t-73 264z" />
<glyph unicode="v" horiz-adv-x="1026" d="M50 992l177 7q44 -126 85.5 -250t84.5 -250l109 -318h17l109 319q44 127 85.5 249.5t82.5 242.5h176q-41 -109 -82.5 -221t-81.5 -222l-66 -178q-35 -94 -69 -185.5t-69 -185.5h-188q-35 93 -70.5 189t-69.5 186l-66 176q-41 109 -82.5 220.5t-81.5 220.5z" />
<glyph unicode="w" horiz-adv-x="1601" d="M50 992l174 7q37 -122 77.5 -256.5t77.5 -258.5l92 -307h16l90 314q36 125 72 249.5t73 251.5h160q36 -121 73 -247.5t73 -249.5l93 -318h16l94 322q35 121 73.5 252.5t70.5 240.5h176q-35 -109 -70.5 -219t-70.5 -219l-56 -174q-32 -97 -63 -192.5t-61 -187.5h-195 q-35 115 -72 238.5t-72 234.5l-87 289h-17l-86 -292q-33 -111 -69 -233t-71 -237h-187q-30 94 -61 187.5t-63 190.5l-57 176q-36 110 -71.5 218.5t-71.5 219.5z" />
<glyph unicode="x" horiz-adv-x="1064" d="M58 0q45 68 78.5 117.5t63 94t63.5 94.5l150 224l2 -47l-147 213q-35 50 -65.5 94t-64 92t-76.5 110l187 7q47 -70 83.5 -126t77.5 -119l106 -160h14l105 160q40 63 76 117.5t79 120.5h190q-45 -64 -77.5 -110.5t-61.5 -87.5t-64 -91l-150 -214l-8 44l167 -228 q53 -73 102.5 -140.5t120.5 -164.5h-200q-45 65 -81 117.5t-81 116.5l-121 176h-14l-110 -168q-43 -66 -78.5 -120.5t-79.5 -121.5h-186z" />
<glyph unicode="y" horiz-adv-x="1035" d="M50 992l177 7l84 -252t84 -251l105 -319h18l115 320q45 125 89 248t89 247h175q-32 -80 -61.5 -154.5t-65 -164.5t-84.5 -214l-110 -279l-127.5 -323t-95.5 -241l-174 -6q40 98 80 198t80 198v-42q-38 102 -76 207t-75 204l-66 180q-39 107 -80.5 219t-80.5 218z" />
<glyph unicode="z" horiz-adv-x="994" d="M77 0v85q85 111 166 217.5t153 200.5l318 417l24 -60h-219h-128.5h-155.5h-154v132h810v-99q-39 -50 -90.5 -117t-106 -138.5t-104.5 -135.5l-316 -413l-18 43h242h127.5h151.5h145v-132h-845z" />
<glyph unicode="{" horiz-adv-x="809" d="M25 586v126h66q49 0 91 19.5t68.5 63.5t26.5 116v67.5v67.5v67.5v67.5v68q0 136 87 210t239 74h172v-139h-86h-66q-94 0 -142.5 -43t-48.5 -126v-312q0 -78 -19.5 -126t-56 -78t-86.5 -51v-17q50 -22 86.5 -52t56 -78.5t19.5 -126.5v-310q0 -83 48.5 -126.5t142.5 -43.5 h65h90v-138h-175q-102 0 -174.5 33t-112 96.5t-39.5 154.5v67.5v67v67.5v67.5v67.5q0 71 -26.5 115t-68.5 64t-91 20h-66z" />
<glyph unicode="|" horiz-adv-x="528" d="M190 23.5v160.5v161v564v161v160.5v164.5v172h148v-172v-164.5v-160.5v-161v-564v-161v-160.5v-164v-172.5h-148v172.5v164z" />
<glyph unicode="}" horiz-adv-x="809" d="M31 1394v139h175q101 0 174 -33t112 -97t39 -154v-68v-67.5v-67v-67v-67.5q0 -72 26.5 -116t69 -63.5t90.5 -19.5h66v-126h-66q-48 0 -90.5 -19.5t-69 -63.5t-26.5 -116v-67.5v-67.5v-68v-67.5v-67.5q0 -136 -86.5 -210t-238.5 -74h-172v138h86h65q95 0 143.5 43.5 t48.5 126.5v312q0 77 19.5 125.5t56 78t86.5 51.5v17q-50 22 -86.5 52t-56 78.5t-19.5 126.5v310q0 83 -48.5 126t-143.5 43h-64h-90z" />
<glyph unicode="~" d="M124 473q0 134 63.5 208t161.5 74q67 0 124.5 -25t107.5 -57.5t98 -57.5t95 -25q55 0 90.5 33t37.5 101h111q0 -134 -62 -208t-158 -74q-67 0 -125 25t-109 57.5t-98.5 57.5t-93.5 25q-56 0 -93 -33t-40 -101h-110z" />
<glyph unicode="&#xa1;" horiz-adv-x="472" d="M104 969q0 59 36 93.5t96 34.5q42 0 71 -15.5t45.5 -44.5t16.5 -68q0 -58 -35.5 -94.5t-97.5 -36.5q-41 0 -70.5 17t-45.5 46t-16 68zM134 -395q10 240 19.5 484t12.5 489l136 3q4 -246 13 -488t19 -482z" />
<glyph unicode="&#xa2;" horiz-adv-x="989" d="M100 497q0 147 56.5 264.5t165 185.5t264.5 68q58 0 114.5 -10t106.5 -26.5t89 -38.5l-15 -152q-56 32 -105.5 49.5t-92 24t-78.5 6.5q-152 0 -244 -99.5t-92 -268.5q0 -106 40.5 -191.5t122 -135t202.5 -49.5q43 0 85.5 8t84.5 23.5t81 40.5l14 -151q-33 -18 -77 -32.5 t-98.5 -23.5t-119.5 -9q-161 0 -273.5 68t-171.5 185t-59 264zM500 62.5v160.5v161v207v161v160.5v164.5v172h125v-172v-164.5v-160.5v-161v-207v-161.5v-161v-164v-171.5h-125v172.5v164z" />
<glyph unicode="&#xa3;" horiz-adv-x="1182" d="M119 690v123h182.5h164.5h67h165h182v-123h-182h-165h-67h-164.5h-182.5zM128 0v99q64 55 97 114.5t45 121.5t12 124v223v222q0 248 121 370.5t343 122.5q59 0 116 -9.5t107 -26.5t89 -39l-17 -154q-58 31 -108 48t-93.5 23t-80.5 6q-151 0 -227 -85t-76 -265v-396 q0 -73 -15 -138.5t-55.5 -127.5t-117.5 -124l-16 44h285h226.5h182h169.5v-153h-987z" />
<glyph unicode="&#xa4;" horiz-adv-x="1246" d="M90 214q66 67 128.5 129t115.5 116l106 -106q-53 -54 -115 -116l-129 -129zM91 1070l104 104l128 -128t116 -117l-104 -104q-53 55 -115 117t-129 128zM206 641q0 121 53.5 213.5t148 144t216.5 51.5q89 0 165 -29.5t131.5 -84t86 -129.5t30.5 -166q0 -129 -54 -221 t-148.5 -140.5t-214.5 -48.5q-90 0 -166 27.5t-131.5 81t-86 129.5t-30.5 172zM358 641q0 -91 35 -150t94.5 -88t132.5 -29q112 0 188.5 65.5t76.5 201.5q0 83 -34.5 143t-94 92t-133.5 32t-134 -31.5t-95.5 -91.5t-35.5 -144zM806 930q54 55 116 117l128 128l106 -106 l-128 -128t-116 -117zM807 354l104 104l116 -116t128 -129l-104 -104q-65 67 -127.5 129t-116.5 116z" />
<glyph unicode="&#xa5;" horiz-adv-x="1248" d="M55 1371h199q51 -92 88 -157.5t70 -124t73 -130.5l130 -234h19l132 236q40 70 73.5 129.5t71 125t88.5 155.5h194q-46 -79 -95.5 -163.5t-95.5 -163.5l-294 -505h-166l-295 504q-28 48 -53.5 92t-58 99t-80.5 137zM160 283v111h182h164h239h164.5h181.5v-111h-181.5 h-164.5h-239h-164h-182zM160 569v112h182h164h239h164.5h181.5v-112h-181.5h-164.5h-239h-164h-182zM539 0v220v232v228h173v-228v-232v-220h-173z" />
<glyph unicode="&#xa6;" horiz-adv-x="528" d="M190 23.5v160.5v161v182h148v-182v-161v-160.5v-164v-172.5h-148v172.5v164zM190 727v182v161v160.5v164.5v172h148v-172v-164.5v-160.5v-161v-182h-148z" />
<glyph unicode="&#xa7;" horiz-adv-x="1093" d="M86 -158l15 153q55 -33 117.5 -56.5t129 -36.5t131.5 -13q73 0 133.5 18.5t96 63.5t35.5 125q0 58 -30.5 94t-100.5 64.5t-189 65.5q-97 30 -171 71t-115.5 102t-41.5 152q0 72 27.5 134t81.5 108t132 70l100 -103q-43 -8 -82 -32t-64 -65.5t-25 -101.5q0 -59 27.5 -98.5 t86.5 -68.5t153 -57q120 -35 205 -74t130 -101t45 -164q0 -96 -43.5 -173.5t-136.5 -123.5t-241 -46q-75 0 -149.5 12t-141 33t-115.5 48zM198 1125q0 147 102 237t279 90q71 0 138.5 -12t125 -32.5t101.5 -45.5l-13 -153q-61 39 -119.5 62t-110.5 32t-95 9q-35 0 -76 -7.5 t-77.5 -28t-59.5 -58t-23 -96.5q0 -54 27.5 -91t86 -66t153.5 -57q119 -35 204 -75.5t130.5 -101.5t45.5 -156q0 -105 -54 -189t-171 -130l-102 94q71 19 114.5 73t43.5 138q0 61 -30.5 100t-101 69.5t-188.5 65.5q-92 26 -167 66t-119 103t-44 160z" />
<glyph unicode="&#xa8;" horiz-adv-x="1200" d="M276 1323q0 57 30.5 87t80.5 30t79 -31.5t29 -85.5q0 -58 -29.5 -87t-80.5 -29q-49 0 -79 29t-30 87zM700 1323q0 57 30.5 87t80.5 30t79 -31.5t29 -85.5q0 -58 -29.5 -87t-80.5 -29q-49 0 -79 29t-30 87z" />
<glyph unicode="&#xa9;" horiz-adv-x="1635" d="M100 688q0 200 84.5 360.5t245.5 254.5t388 94q232 0 392 -95t242.5 -256t82.5 -357q0 -204 -85 -364.5t-244 -253.5t-381 -93q-182 0 -317.5 56.5t-226 155t-136 226.5t-45.5 272zM213 688q0 -181 72 -316t208.5 -210t330.5 -75q184 0 318 74t207 209.5t73 318.5 q0 181 -72 316t-207.5 209.5t-323.5 74.5q-187 0 -323 -75t-209.5 -210.5t-73.5 -315.5zM474 688q0 107 41.5 192.5t121 135.5t192.5 50q42 0 83.5 -7t78.5 -19.5t65 -28.5l-12 -122q-61 38 -111.5 49t-90.5 11q-102 0 -168 -66.5t-66 -191.5q0 -119 65.5 -192t190.5 -73 q48 0 93.5 13t88.5 40l12 -121q-24 -12 -56.5 -23t-72.5 -17.5t-87 -6.5q-117 0 -199.5 50t-125.5 135t-43 192z" />
<glyph unicode="&#xaa;" horiz-adv-x="791" d="M80 872q0 64 22.5 108.5t58.5 73t77.5 45t78.5 23.5l244 49q3 68 -19.5 104t-63.5 49t-94 13q-33 0 -73.5 -6t-88 -20.5t-101.5 -40.5l-8 124q29 12 63.5 22t74 18.5t80.5 13t82 4.5q123 0 195 -61t72 -199v-89v-101v-89v-108.5v-124.5h-112l-6 120h-12 q-24 -37 -62 -67.5t-86 -49t-101 -18.5q-107 0 -164 59t-57 148zM206 898q0 -66 40 -94.5t101 -28.5q38 0 77.5 14t74 44.5t59.5 78.5v183q-12 -7 -31 -14.5t-56 -17t-102 -22.5q-41 -8 -78.5 -24t-61 -44.5t-23.5 -74.5z" />
<glyph unicode="&#xab;" d="M59 502q94 127 187.5 253.5t187.5 253.5l168 -10q-91 -122 -181.5 -244.5t-181.5 -245.5v-17q91 -122 181.5 -243.5t181.5 -243.5l-168 -9q-94 127 -187.5 253.5t-187.5 252.5zM519 502q94 127 187.5 253.5t187.5 253.5l168 -10q-91 -122 -181.5 -244.5t-181.5 -245.5 v-17q91 -122 181.5 -243.5t181.5 -243.5l-168 -9q-94 127 -187.5 253.5t-187.5 252.5z" />
<glyph unicode="&#xac;" d="M124 723v148h182h164h197h164.5h181.5v-207v-164v-182h-151v182v164v162l120 -103h-165.5h-149.5h-197h-164h-182z" />
<glyph unicode="&#xad;" horiz-adv-x="845" d="M124 521v148h157.5h141.5h142h157v-148h-157h-142h-141.5h-157.5z" />
<glyph unicode="&#xae;" horiz-adv-x="1138" d="M72 1000q0 138 57 249.5t168 176.5t272 65q162 0 273 -66t167.5 -177.5t56.5 -246.5q0 -141 -58 -252t-168.5 -175t-265.5 -64q-169 0 -280.5 68t-166.5 179.5t-55 242.5zM151 1000q0 -90 27 -166.5t80 -132t132 -86t183 -30.5q131 0 223 52.5t140.5 146t48.5 217.5 q0 122 -47.5 215.5t-140.5 146t-228 52.5q-134 0 -227.5 -52.5t-142 -146.5t-48.5 -216zM372 728v92v96v192v97.5v92.5l89 -13v-90v-95v-184v-96v-92h-89zM372 1298h84.5h115.5q93 0 147.5 -36.5t54.5 -121.5q0 -70 -43.5 -120.5t-150.5 -50.5l34 38l86 -114 q32 -42 65.5 -87t58.5 -78h-107q-28 39 -52.5 72.5t-49.5 66.5l-94 129l55 -35h-132v67h102q61 0 98.5 22.5t37.5 82.5q0 43 -19.5 62t-46.5 23t-48 4h-136z" />
<glyph unicode="&#xaf;" horiz-adv-x="1200" d="M286 1252v129h150h164h164.5h149.5v-129h-149.5h-164.5h-164h-150z" />
<glyph unicode="&#xb0;" horiz-adv-x="957" d="M75 1012q0 110 52 197t143 137.5t210 50.5q118 0 208.5 -50.5t142 -137.5t51.5 -197q0 -116 -51.5 -202t-142.5 -133t-210 -47q-118 0 -209 47t-142.5 133t-51.5 202zM219 1011q0 -79 31.5 -135.5t90 -87.5t137.5 -31q121 0 190.5 68t69.5 186q0 75 -31.5 133.5 t-89.5 92.5t-137 34q-120 0 -190.5 -73t-70.5 -187z" />
<glyph unicode="&#xb1;" d="M124 0v148h182h164h197h164.5h181.5v-148h-181.5h-164.5h-197h-164h-182zM124 717v148h182h164h197h164.5h181.5v-148h-181.5h-164.5h-197h-164h-182zM493 323v182v164v244v165v181h151v-181v-165v-244v-164v-182h-151z" />
<glyph unicode="&#xb2;" horiz-adv-x="804" d="M65 1463q32 16 70 30.5t80 25.5t86.5 17t89.5 6q100 0 169.5 -32.5t106 -92.5t36.5 -143q0 -74 -35.5 -147.5t-106.5 -150t-177 -159.5l-155 -122l-22 30h152h181h180v-122h-650v95q42 34 84.5 69t85.5 70q101 82 172.5 152t109 135t37.5 132q0 81 -47 123t-147 42 q-44 0 -92 -11t-97 -32t-97 -51z" />
<glyph unicode="&#xb3;" horiz-adv-x="828" d="M68 660l14 127q38 -20 77 -35.5t77.5 -26t76 -15.5t72.5 -5q120 0 171 45t51 115q0 81 -70.5 124t-198.5 43h-46.5h-46.5v97h43.5h43.5q126 0 184.5 45t58.5 114t-51 102t-138 33q-46 0 -93.5 -11t-95.5 -32t-94 -50l-13 131q31 16 68 30.5t77.5 26t84.5 18t88 6.5 q93 0 163 -28t108.5 -79t38.5 -121q0 -86 -54.5 -141.5t-127.5 -72.5v-11q50 -9 99.5 -37.5t82 -78t32.5 -123.5q0 -113 -86 -188.5t-264 -75.5q-45 0 -91 5.5t-89.5 15.5t-81.5 23.5t-70 29.5z" />
<glyph unicode="&#xb4;" horiz-adv-x="1200" d="M452 1154q68 100 136.5 200t134.5 198l185 4q-55 -68 -109 -135t-107 -133l-106 -132z" />
<glyph unicode="&#xb5;" horiz-adv-x="1149" d="M172 54v489v163.5v143.5v142l165 7v-145v-143.5v-150.5v-188q0 -118 42.5 -179.5t153.5 -61.5q63 0 116.5 27.5t97.5 72.5t80 100v229v220v212h165v-143.5v-145v-160.5v-229v-146.5v-167.5h-143q-2 44 -4 88.5t-4 88.5h-18q-29 -45 -75.5 -91t-109 -77t-140.5 -31 q-80 0 -134 27t-88 84h61v-42v-218.5v-212.5l-165 -6v215.5v228.5z" />
<glyph unicode="&#xb6;" horiz-adv-x="1094" d="M66 1019q0 118 47 210t132 144.5t198 52.5h41v-827h-41q-121 0 -205.5 58.5t-128 154t-43.5 207.5zM448 -13.5v321.5v460v321.5v336.5h115v-336.5v-321.5v-460v-321.5v-336.5h-115v336.5zM497 1317v109h197h164h182v-109h-182h-164h-197zM741 -13.5v321.5v460v321.5 v336.5h114v-336.5v-321.5v-460v-321.5v-336.5h-114v336.5z" />
<glyph unicode="&#xb7;" horiz-adv-x="472" d="M104 640q0 59 36 94t96 35q42 0 71 -16t45.5 -45t16.5 -68q0 -58 -35.5 -94.5t-97.5 -36.5q-41 0 -70.5 17t-45.5 46t-16 68z" />
<glyph unicode="&#xb8;" horiz-adv-x="1200" d="M427 -308q14 -5 41.5 -9.5t60.5 -4.5q70 0 98 23t28 57q0 20 -14 39t-51 34t-107 23l78 183h96v-37l-50 -115q72 -11 112 -34t56 -53.5t16 -63.5q0 -45 -24 -82.5t-77 -59.5t-140 -22q-21 0 -44 2t-43.5 5.5t-35.5 8.5v106z" />
<glyph unicode="&#xb9;" horiz-adv-x="636" d="M48 1349q91 46 179.5 90t176.5 87l-4 -127q-71 -36 -150.5 -76t-169.5 -85zM334 603v142.5v151.5v280v144.5v142.5l70 62l67 -3v-157.5v-164.5v-304v-151.5v-142.5h-137z" />
<glyph unicode="&#xba;" horiz-adv-x="911" d="M76 1063q0 112 46 200t131 138.5t203 50.5q120 0 205 -51.5t129 -139.5t44 -198q0 -112 -45.5 -202.5t-130 -143.5t-200.5 -53q-124 0 -209 56t-129 146.5t-44 196.5zM210 1063q0 -73 27.5 -138.5t82.5 -106t137 -40.5t136 40.5t80.5 105.5t26.5 139q0 124 -65 199.5 t-178 75.5q-80 0 -135 -37t-83.5 -99t-28.5 -139z" />
<glyph unicode="&#xbb;" d="M75 6q91 122 181 244.5t181 244.5v18q-91 122 -181 243.5t-181 243.5l168 9q94 -127 187 -253.5t187 -253.5q-94 -126 -187 -252.5t-187 -253.5zM534 6q91 122 181.5 244.5t181.5 244.5v18q-91 122 -181.5 243.5t-181.5 243.5l168 9q94 -127 187.5 -253.5t187.5 -253.5 q-94 -126 -187.5 -252.5t-187.5 -253.5z" />
<glyph unicode="&#xbc;" horiz-adv-x="1886" d="M48 1252q91 46 179.5 90t176.5 87l-4 -127q-71 -36 -150.5 -76t-169.5 -85zM334 506v142.5v151.5v280v144.5v142.5l70 62l67 -3v-157.5v-164.5v-304v-151.5v-142.5h-137zM454 0q60 110 117.5 216t132.5 243l270 495q51 94 93.5 172.5t82 151t81.5 148.5h165 q-41 -76 -80.5 -148.5t-82 -151t-94.5 -172.5l-270 -495q-74 -137 -131.5 -243t-117.5 -216h-166zM1066 204v94q27 35 63.5 84t75 100t69.5 93l123 164q34 45 68.5 91l67.5 90h136v-165v-160v-339v-135.5v-120.5h-138v120.5v135.5l12 23v293v141v142l96 48 q-39 -53 -77.5 -104t-77.5 -103l-168 -225q-35 -47 -67.5 -90.5t-66.5 -88.5l-5 23h391l20 11h130h125v-122h-125h-130h-522z" />
<glyph unicode="&#xbd;" horiz-adv-x="2018" d="M48 1252q91 46 179.5 90t176.5 87l-4 -127q-71 -36 -150.5 -76t-169.5 -85zM334 506v142.5v151.5v280v144.5v142.5l70 62l67 -3v-157.5v-164.5v-304v-151.5v-142.5h-137zM454 0q60 110 117.5 216t132.5 243l270 495q51 94 93.5 172.5t82 151t81.5 148.5h165 q-41 -76 -80.5 -148.5t-82 -151t-94.5 -172.5l-270 -495q-74 -137 -131.5 -243t-117.5 -216h-166zM1279 860q32 16 70 30.5t80 25.5t86.5 17t89.5 6q100 0 169.5 -32.5t106 -92.5t36.5 -143q0 -74 -35.5 -147.5t-106.5 -150t-177 -159.5l-155 -122l-22 30h152h181h180v-122 h-650v95q42 34 84.5 69t85.5 70q101 82 172.5 152t109 135t37.5 132q0 81 -47 123t-147 42q-44 0 -92 -11t-97 -32t-97 -51z" />
<glyph unicode="&#xbe;" horiz-adv-x="1995" d="M68 563l14 127q38 -20 77 -35.5t77.5 -26t76 -15.5t72.5 -5q120 0 171 45t51 115q0 81 -70.5 124t-198.5 43h-46.5h-46.5v97h43.5h43.5q126 0 184.5 45t58.5 114t-51 102t-138 33q-46 0 -93.5 -11t-95.5 -32t-94 -50l-13 131q31 16 68 30.5t77.5 26t84.5 18t88 6.5 q93 0 163 -28t108.5 -79t38.5 -121q0 -86 -54.5 -141.5t-127.5 -72.5v-11q50 -9 99.5 -37.5t82 -78t32.5 -123.5q0 -113 -86 -188.5t-264 -75.5q-45 0 -91 5.5t-89.5 15.5t-81.5 23.5t-70 29.5zM563 0q60 110 117.5 216t132.5 243l270 495q51 94 93.5 172.5t82 151 t81.5 148.5h165q-41 -76 -80.5 -148.5t-82 -151t-94.5 -172.5l-270 -495q-74 -137 -131.5 -243t-117.5 -216h-166zM1176 204v94q27 35 63.5 84t75 100t69.5 93l123 164q34 45 68.5 91l67.5 90h136v-165v-160v-339v-135.5v-120.5h-138v120.5v135.5l12 23v293v141v142l96 48 q-39 -53 -77.5 -104t-77.5 -103l-168 -225q-35 -47 -67.5 -90.5t-66.5 -88.5l-5 23h391l20 11h130h125v-122h-125h-130h-522z" />
<glyph unicode="&#xbf;" horiz-adv-x="796" d="M101 -141q0 92 39 159.5t97.5 118.5t116.5 93q65 48 114 94t49 104q0 64 -40 88.5t-94 24.5q-36 0 -66.5 -7.5t-51.5 -16.5l-7 92q18 6 44.5 12t57.5 10t63 4q117 0 181 -54t64 -145q0 -64 -29.5 -112.5t-76.5 -88.5t-99 -78q-50 -37 -96 -76t-75 -86.5t-29 -107.5 q0 -80 56.5 -122.5t158.5 -42.5q45 0 93 9t97 26t99 43l9 -149q-26 -11 -61.5 -23.5t-77.5 -24t-89.5 -18.5t-98.5 -7q-106 0 -184 31.5t-121 93.5t-43 156zM328 969q0 59 36.5 93.5t96.5 34.5q41 0 70.5 -15.5t45.5 -44.5t16 -68q0 -58 -35 -94.5t-97 -36.5q-41 0 -70.5 17 t-46 46t-16.5 68z" />
<glyph unicode="&#xc0;" horiz-adv-x="1380" d="M59 0q42 115 87.5 242t87.5 241l177 490q47 132 86 238.5t78 214.5h238q39 -110 77 -216t85 -238l176 -491q42 -118 86.5 -242.5t85.5 -238.5h-188q-43 125 -88.5 257.5t-85.5 249.5l-260 756h-17l-262 -749q-43 -122 -89 -255.5t-91 -258.5h-183zM323 358l16 142h722 l13 -142h-751zM382 1936l184 2q68 -90 136 -181t136 -181l-134 -3q-53 60 -106 119.5t-106.5 120t-109.5 123.5z" />
<glyph unicode="&#xc1;" horiz-adv-x="1380" d="M59 0q42 115 87.5 242t87.5 241l177 490q47 132 86 238.5t78 214.5h238q39 -110 77 -216t85 -238l176 -491q42 -118 86.5 -242.5t85.5 -238.5h-188q-43 125 -88.5 257.5t-85.5 249.5l-260 756h-17l-262 -749q-43 -122 -89 -255.5t-91 -258.5h-183zM323 358l16 142h722 l13 -142h-751zM542 1573l136.5 182t134.5 181l185 2q-55 -62 -108.5 -122.5t-107 -120.5t-106.5 -119z" />
<glyph unicode="&#xc2;" horiz-adv-x="1380" d="M59 0q42 115 87.5 242t87.5 241l177 490q47 132 86 238.5t78 214.5h238q39 -110 77 -216t85 -238l176 -491q42 -118 86.5 -242.5t85.5 -238.5h-188q-43 125 -88.5 257.5t-85.5 249.5l-260 756h-17l-262 -749q-43 -122 -89 -255.5t-91 -258.5h-183zM323 358l16 142h722 l13 -142h-751zM326 1575q67 89 135 179.5t136 181.5h181q68 -91 136 -181.5t136 -180.5l-134 -3q-63 75 -125.5 147.5t-127.5 148.5h48q-64 -75 -125.5 -147t-125.5 -145h-134z" />
<glyph unicode="&#xc3;" horiz-adv-x="1380" d="M59 0q42 115 87.5 242t87.5 241l177 490q47 132 86 238.5t78 214.5h238q39 -110 77 -216t85 -238l176 -491q42 -118 86.5 -242.5t85.5 -238.5h-188q-43 125 -88.5 257.5t-85.5 249.5l-260 756h-17l-262 -749q-43 -122 -89 -255.5t-91 -258.5h-183zM323 358l16 142h722 l13 -142h-751zM335 1599q0 130 51.5 199.5t139.5 69.5q59 0 102 -26t77 -60t66 -60t69 -26q57 0 79.5 37t24.5 105h101q0 -131 -50 -200.5t-136 -69.5q-60 0 -103.5 26t-78.5 60.5t-66.5 60.5t-67.5 26q-58 0 -81 -37t-26 -105h-101z" />
<glyph unicode="&#xc4;" horiz-adv-x="1380" d="M59 0q42 115 87.5 242t87.5 241l177 490q47 132 86 238.5t78 214.5h238q39 -110 77 -216t85 -238l176 -491q42 -118 86.5 -242.5t85.5 -238.5h-188q-43 125 -88.5 257.5t-85.5 249.5l-260 756h-17l-262 -749q-43 -122 -89 -255.5t-91 -258.5h-183zM323 358l16 142h722 l13 -142h-751zM368 1742q0 57 30.5 87t80.5 30t79 -31.5t29 -85.5q0 -57 -29.5 -86.5t-80.5 -29.5q-49 0 -79 29.5t-30 86.5zM792 1742q0 57 30.5 87t80.5 30t79 -31.5t29 -85.5q0 -57 -29.5 -86.5t-80.5 -29.5q-49 0 -79 29.5t-30 86.5z" />
<glyph unicode="&#xc5;" horiz-adv-x="1380" d="M59 0q42 115 87.5 242t87.5 241l177 490q47 132 86 238.5t78 214.5h238q39 -110 77 -216t85 -238l176 -491q42 -118 86.5 -242.5t85.5 -238.5h-188q-43 125 -88.5 257.5t-85.5 249.5l-260 756h-17l-262 -749q-43 -122 -89 -255.5t-91 -258.5h-183zM323 358l16 142h722 l13 -142h-751zM461 1769q0 94 63.5 150.5t165.5 56.5q67 0 118.5 -26t80 -73t28.5 -108q0 -68 -29 -114.5t-80.5 -71t-119.5 -24.5q-67 0 -118 24.5t-80 71.5t-29 114zM560 1768q0 -60 36.5 -90.5t91.5 -30.5q57 0 93.5 30.5t36.5 90.5q0 55 -36 88.5t-92 33.5 q-57 0 -93.5 -33t-36.5 -89z" />
<glyph unicode="&#xc6;" horiz-adv-x="1941" d="M29 0q63 115 131.5 241.5t130.5 241.5l268 493q68 127 126.5 234.5t116.5 215.5h1023v-155h-139h-156.5h-188.5h-280l56 129v-231.5v-244.5v-426v-241.5v-229.5l-53 128h292h168h156.5h147.5v-155h-889v229v242v479v243v217l89 -134h-126l-408 -762 q-66 -122 -137.5 -255.5t-138.5 -258.5h-189zM364 358l16 143h627l13 -143h-656zM1077 647v151h277h238.5h192.5v-151h-97.5h-100h-109h-124.5h-277z" />
<glyph unicode="&#xc7;" horiz-adv-x="1370" d="M100 715q0 216 89 382.5t247 260.5t368 94q71 0 138 -10t127 -27t111 -37t88 -41l-16 -174q-78 46 -151.5 74.5t-144 41.5t-137.5 13q-154 0 -274 -70t-188.5 -199.5t-68.5 -308.5q0 -119 35.5 -224t106 -185t175 -125.5t243.5 -45.5q51 0 102 6.5t101 20.5t98.5 37.5 t95.5 55.5l14 -172q-42 -27 -92.5 -47t-106 -32.5t-113.5 -18.5t-116 -6q-169 0 -304.5 55t-230.5 154.5t-145.5 234t-50.5 293.5zM626 -308q14 -5 41.5 -9.5t60.5 -4.5q70 0 98 23t28 57q0 20 -14 39t-51 34t-107 23l78 183h96v-37l-50 -115q72 -11 112 -34t56 -53.5 t16 -63.5q0 -45 -24 -82.5t-77 -59.5t-140 -22q-21 0 -44 2t-43.5 5.5t-35.5 8.5v106z" />
<glyph unicode="&#xc8;" horiz-adv-x="1187" d="M185 0v229v242v479v245v231h886v-155h-214.5h-270.5h-324l100 129v-231.5v-244.5v-426v-241.5v-229.5l-90 128h330h247.5h223.5v-155h-888zM323 647v151h277h238h193v-151h-197.5h-234.5h-276zM323 1936l184 2q68 -90 136 -181t136 -181l-134 -3q-53 60 -106 119.5 t-106.5 120t-109.5 123.5z" />
<glyph unicode="&#xc9;" horiz-adv-x="1187" d="M185 0v229v242v479v245v231h886v-155h-214.5h-270.5h-324l100 129v-231.5v-244.5v-426v-241.5v-229.5l-90 128h330h247.5h223.5v-155h-888zM323 647v151h277h238h193v-151h-197.5h-234.5h-276zM483 1573l136.5 182t134.5 181l185 2q-55 -62 -108.5 -122.5t-107 -120.5 t-106.5 -119z" />
<glyph unicode="&#xca;" horiz-adv-x="1187" d="M185 0v229v242v479v245v231h886v-155h-214.5h-270.5h-324l100 129v-231.5v-244.5v-426v-241.5v-229.5l-90 128h330h247.5h223.5v-155h-888zM267 1575q67 89 135 179.5t136 181.5h181q68 -91 136 -181.5t136 -180.5l-134 -3q-63 75 -125.5 147.5t-127.5 148.5h48 q-64 -75 -125.5 -147t-125.5 -145h-134zM323 647v151h277h238h193v-151h-197.5h-234.5h-276z" />
<glyph unicode="&#xcb;" horiz-adv-x="1187" d="M185 0v229v242v479v245v231h886v-155h-214.5h-270.5h-324l100 129v-231.5v-244.5v-426v-241.5v-229.5l-90 128h330h247.5h223.5v-155h-888zM309 1742q0 57 30.5 87t80.5 30t79 -31.5t29 -85.5q0 -57 -29.5 -86.5t-80.5 -29.5q-49 0 -79 29.5t-30 86.5zM323 647v151h277 h238h193v-151h-197.5h-234.5h-276zM733 1742q0 57 30.5 87t80.5 30t79 -31.5t29 -85.5q0 -57 -29.5 -86.5t-80.5 -29.5q-49 0 -79 29.5t-30 86.5z" />
<glyph unicode="&#xcc;" horiz-adv-x="559" d="M-31 1936l184 2q68 -90 136 -181t136 -181l-134 -3q-53 60 -106 119.5t-106.5 120t-109.5 123.5zM188 0v229v242v478v246.5v230.5h184v-230.5v-246.5v-478v-242v-229h-184z" />
<glyph unicode="&#xcd;" horiz-adv-x="559" d="M129 1573l136.5 182t134.5 181l185 2q-55 -62 -108.5 -122.5t-107 -120.5t-106.5 -119zM188 0v229v242v478v246.5v230.5h184v-230.5v-246.5v-478v-242v-229h-184z" />
<glyph unicode="&#xce;" horiz-adv-x="559" d="M-87 1575q67 89 135 179.5t136 181.5h181q68 -91 136 -181.5t136 -180.5l-134 -3q-63 75 -125.5 147.5t-127.5 148.5h48q-64 -75 -125.5 -147t-125.5 -145h-134zM188 0v229v242v478v246.5v230.5h184v-230.5v-246.5v-478v-242v-229h-184z" />
<glyph unicode="&#xcf;" horiz-adv-x="559" d="M-45 1742q0 57 30.5 87t80.5 30t79 -31.5t29 -85.5q0 -57 -29.5 -86.5t-80.5 -29.5q-49 0 -79 29.5t-30 86.5zM188 0v229v242v478v246.5v230.5h184v-230.5v-246.5v-478v-242v-229h-184zM379 1742q0 57 30.5 87t80.5 30t79 -31.5t29 -85.5q0 -57 -29.5 -86.5t-80.5 -29.5 q-49 0 -79 29.5t-30 86.5z" />
<glyph unicode="&#xd0;" horiz-adv-x="1473" d="M-23 632v132h178.5h160.5h93h161h178v-132h-178h-161h-93h-160.5h-178.5zM185 0v229v242v478v246.5v230.5h172h163h166q165 0 293 -47.5t215.5 -139t133 -222.5t45.5 -298q0 -151 -40 -281.5t-127.5 -229t-229 -153.5t-344.5 -55h-159h-142.5h-145.5zM366 151h267 q204 0 325 74.5t174 204t53 292.5q0 125 -31.5 227t-96 175t-165 112t-237.5 39h-289v-171.5v-187.5v-410v-185v-170z" />
<glyph unicode="&#xd1;" horiz-adv-x="1508" d="M185 0v229v242v478v246.5v230.5h163q128 -180 246 -347t233 -329l309 -436h15v635v246.5v230.5h172v-230.5v-246.5v-478v-242v-229h-161q-106 150 -223 315.5t-257 363.5l-311 439h-14v-647v-242v-229h-172zM400 1599q0 130 51.5 199.5t139.5 69.5q59 0 102 -26t77 -60 t66 -60t69 -26q57 0 79.5 37t24.5 105h101q0 -131 -50 -200.5t-136 -69.5q-60 0 -103.5 26t-78.5 60.5t-66.5 60.5t-67.5 26q-58 0 -81 -37t-26 -105h-101z" />
<glyph unicode="&#xd2;" horiz-adv-x="1634" d="M100 714q0 208 84.5 375t244.5 265t389 98q174 0 307.5 -57t224.5 -158t137 -235t46 -287q0 -211 -84 -377.5t-243 -263t-382 -96.5q-181 0 -317 58.5t-226.5 161t-135.5 235.5t-45 281zM288 715q0 -116 32 -220t97.5 -185.5t165.5 -128.5t236 -47q137 0 236 47.5 t163.5 129.5t95.5 186.5t31 217.5q0 122 -33.5 227.5t-100 185t-164.5 124t-228 44.5q-134 0 -233.5 -47t-165.5 -128.5t-99 -186t-33 -219.5zM508 1936l184 2q68 -90 136 -181t136 -181l-134 -3q-53 60 -106 119.5t-106.5 120t-109.5 123.5z" />
<glyph unicode="&#xd3;" horiz-adv-x="1634" d="M100 714q0 208 84.5 375t244.5 265t389 98q174 0 307.5 -57t224.5 -158t137 -235t46 -287q0 -211 -84 -377.5t-243 -263t-382 -96.5q-181 0 -317 58.5t-226.5 161t-135.5 235.5t-45 281zM288 715q0 -116 32 -220t97.5 -185.5t165.5 -128.5t236 -47q137 0 236 47.5 t163.5 129.5t95.5 186.5t31 217.5q0 122 -33.5 227.5t-100 185t-164.5 124t-228 44.5q-134 0 -233.5 -47t-165.5 -128.5t-99 -186t-33 -219.5zM668 1573l136.5 182t134.5 181l185 2q-55 -62 -108.5 -122.5t-107 -120.5t-106.5 -119z" />
<glyph unicode="&#xd4;" horiz-adv-x="1634" d="M100 714q0 208 84.5 375t244.5 265t389 98q174 0 307.5 -57t224.5 -158t137 -235t46 -287q0 -211 -84 -377.5t-243 -263t-382 -96.5q-181 0 -317 58.5t-226.5 161t-135.5 235.5t-45 281zM288 715q0 -116 32 -220t97.5 -185.5t165.5 -128.5t236 -47q137 0 236 47.5 t163.5 129.5t95.5 186.5t31 217.5q0 122 -33.5 227.5t-100 185t-164.5 124t-228 44.5q-134 0 -233.5 -47t-165.5 -128.5t-99 -186t-33 -219.5zM452 1575q67 89 135 179.5t136 181.5h181q68 -91 136 -181.5t136 -180.5l-134 -3q-63 75 -125.5 147.5t-127.5 148.5h48 q-64 -75 -125.5 -147t-125.5 -145h-134z" />
<glyph unicode="&#xd5;" horiz-adv-x="1634" d="M100 714q0 208 84.5 375t244.5 265t389 98q174 0 307.5 -57t224.5 -158t137 -235t46 -287q0 -211 -84 -377.5t-243 -263t-382 -96.5q-181 0 -317 58.5t-226.5 161t-135.5 235.5t-45 281zM288 715q0 -116 32 -220t97.5 -185.5t165.5 -128.5t236 -47q137 0 236 47.5 t163.5 129.5t95.5 186.5t31 217.5q0 122 -33.5 227.5t-100 185t-164.5 124t-228 44.5q-134 0 -233.5 -47t-165.5 -128.5t-99 -186t-33 -219.5zM461 1599q0 130 51.5 199.5t139.5 69.5q59 0 102 -26t77 -60t66 -60t69 -26q57 0 79.5 37t24.5 105h101q0 -131 -50 -200.5 t-136 -69.5q-60 0 -103.5 26t-78.5 60.5t-66.5 60.5t-67.5 26q-58 0 -81 -37t-26 -105h-101z" />
<glyph unicode="&#xd6;" horiz-adv-x="1634" d="M100 714q0 208 84.5 375t244.5 265t389 98q174 0 307.5 -57t224.5 -158t137 -235t46 -287q0 -211 -84 -377.5t-243 -263t-382 -96.5q-181 0 -317 58.5t-226.5 161t-135.5 235.5t-45 281zM288 715q0 -116 32 -220t97.5 -185.5t165.5 -128.5t236 -47q137 0 236 47.5 t163.5 129.5t95.5 186.5t31 217.5q0 122 -33.5 227.5t-100 185t-164.5 124t-228 44.5q-134 0 -233.5 -47t-165.5 -128.5t-99 -186t-33 -219.5zM494 1742q0 57 30.5 87t80.5 30t79 -31.5t29 -85.5q0 -57 -29.5 -86.5t-80.5 -29.5q-49 0 -79 29.5t-30 86.5zM918 1742 q0 57 30.5 87t80.5 30t79 -31.5t29 -85.5q0 -57 -29.5 -86.5t-80.5 -29.5q-49 0 -79 29.5t-30 86.5z" />
<glyph unicode="&#xd7;" horiz-adv-x="1132" d="M125 263q45 44 87.5 86.5l82.5 82.5t76 77l285 284l117 117l128 128l106 -106q-66 -65 -128.5 -127.5l-117.5 -117.5l-284 -284l-116 -116l-130 -130zM125 932l106 106q67 -65 129 -128t117 -118l284 -283q55 -55 117.5 -117t128.5 -129l-106 -106q-66 67 -129 130 t-117 116l-285 285q-54 54 -116 116.5t-129 127.5z" />
<glyph unicode="&#xd8;" horiz-adv-x="1634" d="M100 714q0 208 84.5 375t244.5 265t389 98q174 0 307.5 -57t224.5 -158t137 -235t46 -287q0 -211 -84 -377.5t-243 -263t-382 -96.5q-181 0 -317 58.5t-226.5 161t-135.5 235.5t-45 281zM171 -52q104 137 196.5 257.5t200.5 260.5l393 515q110 144 205.5 268.5 t195.5 255.5l96 -73q-102 -133 -196 -256t-204 -266l-397 -519q-108 -142 -203.5 -266.5t-194.5 -254.5zM288 715q0 -116 32 -220t97.5 -185.5t165.5 -128.5t236 -47q137 0 236 47.5t163.5 129.5t95.5 186.5t31 217.5q0 122 -33.5 227.5t-100 185t-164.5 124t-228 44.5 q-134 0 -233.5 -47t-165.5 -128.5t-99 -186t-33 -219.5z" />
<glyph unicode="&#xd9;" horiz-adv-x="1461" d="M166 530v108.5v147.5v163v246.5v230.5h180v-230.5v-246.5v-401q0 -129 38 -222t122.5 -142.5t224.5 -49.5q141 0 224.5 49.5t120.5 142.5t37 224v399v246.5v230.5h180v-230.5v-246.5v-163.5v-148.5v-107q0 -166 -59 -290.5t-183 -193t-320 -68.5q-199 0 -323.5 68.5 t-183 193t-58.5 290.5zM424 1936l184 2q68 -90 136 -181t136 -181l-134 -3q-53 60 -106 119.5t-106.5 120t-109.5 123.5z" />
<glyph unicode="&#xda;" horiz-adv-x="1461" d="M166 530v108.5v147.5v163v246.5v230.5h180v-230.5v-246.5v-401q0 -129 38 -222t122.5 -142.5t224.5 -49.5q141 0 224.5 49.5t120.5 142.5t37 224v399v246.5v230.5h180v-230.5v-246.5v-163.5v-148.5v-107q0 -166 -59 -290.5t-183 -193t-320 -68.5q-199 0 -323.5 68.5 t-183 193t-58.5 290.5zM584 1573l136.5 182t134.5 181l185 2q-55 -62 -108.5 -122.5t-107 -120.5t-106.5 -119z" />
<glyph unicode="&#xdb;" horiz-adv-x="1461" d="M166 530v108.5v147.5v163v246.5v230.5h180v-230.5v-246.5v-401q0 -129 38 -222t122.5 -142.5t224.5 -49.5q141 0 224.5 49.5t120.5 142.5t37 224v399v246.5v230.5h180v-230.5v-246.5v-163.5v-148.5v-107q0 -166 -59 -290.5t-183 -193t-320 -68.5q-199 0 -323.5 68.5 t-183 193t-58.5 290.5zM368 1575q67 89 135 179.5t136 181.5h181q68 -91 136 -181.5t136 -180.5l-134 -3q-63 75 -125.5 147.5t-127.5 148.5h48q-64 -75 -125.5 -147t-125.5 -145h-134z" />
<glyph unicode="&#xdc;" horiz-adv-x="1461" d="M166 530v108.5v147.5v163v246.5v230.5h180v-230.5v-246.5v-401q0 -129 38 -222t122.5 -142.5t224.5 -49.5q141 0 224.5 49.5t120.5 142.5t37 224v399v246.5v230.5h180v-230.5v-246.5v-163.5v-148.5v-107q0 -166 -59 -290.5t-183 -193t-320 -68.5q-199 0 -323.5 68.5 t-183 193t-58.5 290.5zM410 1742q0 57 30.5 87t80.5 30t79 -31.5t29 -85.5q0 -57 -29.5 -86.5t-80.5 -29.5q-49 0 -79 29.5t-30 86.5zM834 1742q0 57 30.5 87t80.5 30t79 -31.5t29 -85.5q0 -57 -29.5 -86.5t-80.5 -29.5q-49 0 -79 29.5t-30 86.5z" />
<glyph unicode="&#xdd;" horiz-adv-x="1304" d="M55 1426h207q55 -96 94 -165t74 -130.5t77 -135.5l138 -243h18l134 234q45 79 81.5 143t76.5 133.5t94 163.5h203q-51 -87 -101.5 -172.5t-99.5 -168.5l-311 -528h-172l-311 527q-50 84 -96 162.5t-106 179.5zM506 1573l136.5 182t134.5 181l185 2q-55 -62 -108.5 -122.5 t-107 -120.5t-106.5 -119zM564 0v229v242v237h181v-237v-242v-229h-181z" />
<glyph unicode="&#xde;" horiz-adv-x="1254" d="M185 0v229v242v479v245v231h178v-231v-245v-479v-242v-229h-178zM340 314v149h277q128 0 209.5 30.5t120.5 96.5t39 172q0 88 -28.5 140t-75 77.5t-100.5 33.5t-105 8h-337v150h151h198q163 0 269.5 -43t159.5 -133t53 -232q0 -130 -48.5 -231.5t-162 -159.5t-309.5 -58 h-107h-110.5h-93.5z" />
<glyph unicode="&#xdf;" horiz-adv-x="1212" d="M49 862v130h210v-130h-210zM211 0v213v225v100v246v247q0 223 114 341.5t312 118.5q118 0 205.5 -42.5t136.5 -120.5t49 -186q0 -90 -30.5 -153t-77 -103t-93.5 -61v-17q45 -15 95 -43.5t93 -75t69.5 -114.5t26.5 -162q0 -188 -112.5 -305t-310.5 -117q-30 0 -61.5 3 t-56.5 7v128q16 -3 38.5 -5t46.5 -2q140 0 213.5 81.5t73.5 213.5q0 102 -45 170t-122 102t-173 34v130q70 0 131.5 31t98.5 88.5t37 140.5q0 106 -63 169.5t-173 63.5q-124 0 -190.5 -77t-66.5 -238v-593v-225v-213h-165z" />
<glyph unicode="&#xe0;" horiz-adv-x="1037" d="M106 267q0 81 29 136.5t76 90.5t104 54.5t114 29.5l311 54q4 101 -26.5 152.5t-85.5 69.5t-122 18q-34 0 -73 -5t-82.5 -15.5t-91.5 -26.5t-101 -39l-9 151q36 15 81.5 29t97 25.5t105.5 17.5t109 6q111 0 191.5 -35t123.5 -110t43 -196v-117v-135v-129v-138.5v-154.5 h-150l-9 141h-16q-31 -40 -78 -77t-108.5 -60.5t-134.5 -23.5q-89 0 -156 34.5t-104.5 98.5t-37.5 154zM222 1552l184 4q68 -99 136 -198.5t136 -201.5l-134 -2q-53 66 -106.5 131.5t-107 132.5t-108.5 134zM274 274q0 -86 51.5 -121.5t126.5 -35.5q53 0 106 22t99.5 65.5 t78.5 109.5l1 214q-16 -9 -42.5 -18t-79 -20.5t-145.5 -28.5q-57 -10 -101 -32.5t-69.5 -61t-25.5 -93.5z" />
<glyph unicode="&#xe1;" horiz-adv-x="1037" d="M106 267q0 81 29 136.5t76 90.5t104 54.5t114 29.5l311 54q4 101 -26.5 152.5t-85.5 69.5t-122 18q-34 0 -73 -5t-82.5 -15.5t-91.5 -26.5t-101 -39l-9 151q36 15 81.5 29t97 25.5t105.5 17.5t109 6q111 0 191.5 -35t123.5 -110t43 -196v-117v-135v-129v-138.5v-154.5 h-150l-9 141h-16q-31 -40 -78 -77t-108.5 -60.5t-134.5 -23.5q-89 0 -156 34.5t-104.5 98.5t-37.5 154zM274 274q0 -86 51.5 -121.5t126.5 -35.5q53 0 106 22t99.5 65.5t78.5 109.5l1 214q-16 -9 -42.5 -18t-79 -20.5t-145.5 -28.5q-57 -10 -101 -32.5t-69.5 -61 t-25.5 -93.5zM382 1154q68 100 136.5 200t134.5 198l185 4q-55 -68 -109 -135t-107 -133l-106 -132z" />
<glyph unicode="&#xe2;" horiz-adv-x="1037" d="M106 267q0 81 29 136.5t76 90.5t104 54.5t114 29.5l311 54q4 101 -26.5 152.5t-85.5 69.5t-122 18q-34 0 -73 -5t-82.5 -15.5t-91.5 -26.5t-101 -39l-9 151q36 15 81.5 29t97 25.5t105.5 17.5t109 6q111 0 191.5 -35t123.5 -110t43 -196v-117v-135v-129v-138.5v-154.5 h-150l-9 141h-16q-31 -40 -78 -77t-108.5 -60.5t-134.5 -23.5q-89 0 -156 34.5t-104.5 98.5t-37.5 154zM166 1156q67 98 135 197.5t136 198.5h181q68 -99 136 -198.5t136 -199.5l-134 -2q-62 82 -124 161.5t-126 161.5h44q-63 -82 -124.5 -160.5t-125.5 -158.5h-134z M274 274q0 -86 51.5 -121.5t126.5 -35.5q53 0 106 22t99.5 65.5t78.5 109.5l1 214q-16 -9 -42.5 -18t-79 -20.5t-145.5 -28.5q-57 -10 -101 -32.5t-69.5 -61t-25.5 -93.5z" />
<glyph unicode="&#xe3;" horiz-adv-x="1037" d="M106 267q0 81 29 136.5t76 90.5t104 54.5t114 29.5l311 54q4 101 -26.5 152.5t-85.5 69.5t-122 18q-34 0 -73 -5t-82.5 -15.5t-91.5 -26.5t-101 -39l-9 151q36 15 81.5 29t97 25.5t105.5 17.5t109 6q111 0 191.5 -35t123.5 -110t43 -196v-117v-135v-129v-138.5v-154.5 h-150l-9 141h-16q-31 -40 -78 -77t-108.5 -60.5t-134.5 -23.5q-89 0 -156 34.5t-104.5 98.5t-37.5 154zM175 1180q0 130 51.5 199.5t139.5 69.5q59 0 102 -26t77 -60t66 -60t69 -26q57 0 79.5 37t24.5 105h101q0 -131 -50 -200.5t-136 -69.5q-60 0 -103.5 26t-78.5 60.5 t-66.5 60t-67.5 25.5q-58 0 -81 -36.5t-26 -104.5h-101zM274 274q0 -86 51.5 -121.5t126.5 -35.5q53 0 106 22t99.5 65.5t78.5 109.5l1 214q-16 -9 -42.5 -18t-79 -20.5t-145.5 -28.5q-57 -10 -101 -32.5t-69.5 -61t-25.5 -93.5z" />
<glyph unicode="&#xe4;" horiz-adv-x="1037" d="M106 267q0 81 29 136.5t76 90.5t104 54.5t114 29.5l311 54q4 101 -26.5 152.5t-85.5 69.5t-122 18q-34 0 -73 -5t-82.5 -15.5t-91.5 -26.5t-101 -39l-9 151q36 15 81.5 29t97 25.5t105.5 17.5t109 6q111 0 191.5 -35t123.5 -110t43 -196v-117v-135v-129v-138.5v-154.5 h-150l-9 141h-16q-31 -40 -78 -77t-108.5 -60.5t-134.5 -23.5q-89 0 -156 34.5t-104.5 98.5t-37.5 154zM208 1323q0 57 30.5 87t80.5 30t79 -31.5t29 -85.5q0 -58 -29.5 -87t-80.5 -29q-49 0 -79 29t-30 87zM274 274q0 -86 51.5 -121.5t126.5 -35.5q53 0 106 22t99.5 65.5 t78.5 109.5l1 214q-16 -9 -42.5 -18t-79 -20.5t-145.5 -28.5q-57 -10 -101 -32.5t-69.5 -61t-25.5 -93.5zM632 1323q0 57 30.5 87t80.5 30t79 -31.5t29 -85.5q0 -58 -29.5 -87t-80.5 -29q-49 0 -79 29t-30 87z" />
<glyph unicode="&#xe5;" horiz-adv-x="1037" d="M106 267q0 81 29 136.5t76 90.5t104 54.5t114 29.5l311 54q4 101 -26.5 152.5t-85.5 69.5t-122 18q-34 0 -73 -5t-82.5 -15.5t-91.5 -26.5t-101 -39l-9 151q36 15 81.5 29t97 25.5t105.5 17.5t109 6q111 0 191.5 -35t123.5 -110t43 -196v-117v-135v-129v-138.5v-154.5 h-150l-9 141h-16q-31 -40 -78 -77t-108.5 -60.5t-134.5 -23.5q-89 0 -156 34.5t-104.5 98.5t-37.5 154zM274 274q0 -86 51.5 -121.5t126.5 -35.5q53 0 106 22t99.5 65.5t78.5 109.5l1 214q-16 -9 -42.5 -18t-79 -20.5t-145.5 -28.5q-57 -10 -101 -32.5t-69.5 -61 t-25.5 -93.5zM301 1335q0 94 63.5 150.5t165.5 56.5q67 0 118.5 -26t80 -73t28.5 -108q0 -68 -29 -114.5t-80.5 -71t-119.5 -24.5q-67 0 -118 24.5t-80 71.5t-29 114zM400 1334q0 -60 36.5 -90.5t91.5 -30.5q57 0 93.5 30.5t36.5 90.5q0 55 -36 88.5t-92 33.5 q-57 0 -93.5 -33t-36.5 -89z" />
<glyph unicode="&#xe6;" horiz-adv-x="1630" d="M84 267q0 81 29 136.5t76 90.5t104 54.5t114 29.5l312 54q3 101 -27.5 152.5t-85 69.5t-122.5 18q-34 0 -73 -5t-82 -15.5t-91 -26.5t-101 -39l-10 151q36 15 80 29t94 25.5t103 17.5t105 6q161 0 250 -80t89 -261l-31 -170l10 -246q-50 -96 -118 -157.5t-148.5 -91 t-167.5 -29.5q-95 0 -164 34.5t-107 98.5t-38 154zM252 274q0 -86 52 -121.5t126 -35.5q53 0 106.5 22t99.5 65.5t78 109.5l1 214q-16 -9 -42.5 -18t-78.5 -20.5t-146 -28.5q-57 -10 -101 -32.5t-69.5 -61t-25.5 -93.5zM725 502q0 150 50.5 266t147 181.5t234.5 65.5 q124 0 214 -49t139 -143.5t49 -233.5q0 -37 -1.5 -66.5t-6.5 -59.5l-145 73q2 16 3 30.5t1 28.5q0 141 -71 214.5t-182 73.5q-91 0 -155 -46.5t-97.5 -128.5t-33.5 -187v-23q0 -174 86 -274.5t274 -100.5q47 0 99.5 7.5t104.5 23.5t98 42l7 -149q-38 -21 -88.5 -36.5 t-110 -24t-125.5 -8.5q-171 0 -279.5 68t-160 186t-51.5 270zM772 463v118l678 6l101 -34v-90h-779z" />
<glyph unicode="&#xe7;" horiz-adv-x="989" d="M100 497q0 147 56.5 264.5t165 185.5t264.5 68q58 0 114.5 -10t106.5 -26.5t89 -38.5l-15 -152q-56 32 -105.5 49.5t-92 24t-78.5 6.5q-152 0 -244 -99.5t-92 -268.5q0 -106 40.5 -191.5t122 -135t202.5 -49.5q43 0 85.5 8t84.5 23.5t81 40.5l14 -151q-33 -18 -77 -32.5 t-98.5 -23.5t-119.5 -9q-161 0 -273.5 68t-171.5 185t-59 264zM400 -308q14 -5 41.5 -9.5t60.5 -4.5q70 0 98 23t28 57q0 20 -14 39t-51 34t-107 23l78 183h96v-37l-50 -115q72 -11 112 -34t56 -53.5t16 -63.5q0 -45 -24 -82.5t-77 -59.5t-140 -22q-21 0 -44 2t-43.5 5.5 t-35.5 8.5v106z" />
<glyph unicode="&#xe8;" horiz-adv-x="1055" d="M100 502q0 150 55 266t158 181.5t246 65.5q126 0 216.5 -49t139.5 -143.5t49 -233.5q0 -37 -1.5 -66.5t-6.5 -59.5l-145 73q2 16 2.5 30.5t0.5 28.5q0 141 -70 214.5t-183 73.5q-91 0 -156.5 -46.5t-101.5 -128.5t-36 -187v-23q0 -116 40 -200t121.5 -129.5t207.5 -45.5 q47 0 99.5 7.5t104 23.5t98.5 42l7 -149q-38 -21 -88 -36.5t-110 -24t-127 -8.5q-178 0 -293 68t-171 186t-56 270zM169 463v118l686 6l101 -38v-86h-787zM247 1552l184 4q68 -99 136 -198.5t136 -201.5l-134 -2q-53 66 -106.5 131.5t-107 132.5t-108.5 134z" />
<glyph unicode="&#xe9;" horiz-adv-x="1055" d="M100 502q0 150 55 266t158 181.5t246 65.5q126 0 216.5 -49t139.5 -143.5t49 -233.5q0 -37 -1.5 -66.5t-6.5 -59.5l-145 73q2 16 2.5 30.5t0.5 28.5q0 141 -70 214.5t-183 73.5q-91 0 -156.5 -46.5t-101.5 -128.5t-36 -187v-23q0 -116 40 -200t121.5 -129.5t207.5 -45.5 q47 0 99.5 7.5t104 23.5t98.5 42l7 -149q-38 -21 -88 -36.5t-110 -24t-127 -8.5q-178 0 -293 68t-171 186t-56 270zM169 463v118l686 6l101 -38v-86h-787zM407 1154q68 100 136.5 200t134.5 198l185 4q-55 -68 -109 -135t-107 -133l-106 -132z" />
<glyph unicode="&#xea;" horiz-adv-x="1055" d="M100 502q0 150 55 266t158 181.5t246 65.5q126 0 216.5 -49t139.5 -143.5t49 -233.5q0 -37 -1.5 -66.5t-6.5 -59.5l-145 73q2 16 2.5 30.5t0.5 28.5q0 141 -70 214.5t-183 73.5q-91 0 -156.5 -46.5t-101.5 -128.5t-36 -187v-23q0 -116 40 -200t121.5 -129.5t207.5 -45.5 q47 0 99.5 7.5t104 23.5t98.5 42l7 -149q-38 -21 -88 -36.5t-110 -24t-127 -8.5q-178 0 -293 68t-171 186t-56 270zM169 463v118l686 6l101 -38v-86h-787zM191 1156q67 98 135 197.5t136 198.5h181q68 -99 136 -198.5t136 -199.5l-134 -2q-62 82 -124 161.5t-126 161.5h44 q-63 -82 -124.5 -160.5t-125.5 -158.5h-134z" />
<glyph unicode="&#xeb;" horiz-adv-x="1055" d="M100 502q0 150 55 266t158 181.5t246 65.5q126 0 216.5 -49t139.5 -143.5t49 -233.5q0 -37 -1.5 -66.5t-6.5 -59.5l-145 73q2 16 2.5 30.5t0.5 28.5q0 141 -70 214.5t-183 73.5q-91 0 -156.5 -46.5t-101.5 -128.5t-36 -187v-23q0 -116 40 -200t121.5 -129.5t207.5 -45.5 q47 0 99.5 7.5t104 23.5t98.5 42l7 -149q-38 -21 -88 -36.5t-110 -24t-127 -8.5q-178 0 -293 68t-171 186t-56 270zM169 463v118l686 6l101 -38v-86h-787zM233 1323q0 57 30.5 87t80.5 30t79 -31.5t29 -85.5q0 -58 -29.5 -87t-80.5 -29q-49 0 -79 29t-30 87zM657 1323 q0 57 30.5 87t80.5 30t79 -31.5t29 -85.5q0 -58 -29.5 -87t-80.5 -29q-49 0 -79 29t-30 87z" />
<glyph unicode="&#xec;" horiz-adv-x="514" d="M-51 1552l184 4q68 -99 136 -198.5t136 -201.5l-134 -2q-53 66 -106.5 131.5t-107 132.5t-108.5 134zM174 0v213v225v100v164.5v146v143.5l166 6v-145.5v-148v-166.5v-100v-225v-213h-166z" />
<glyph unicode="&#xed;" horiz-adv-x="514" d="M109 1154q68 100 136.5 200t134.5 198l185 4q-55 -68 -109 -135t-107 -133l-106 -132zM174 0v213v225v100v164.5v146v143.5l166 6v-145.5v-148v-166.5v-100v-225v-213h-166z" />
<glyph unicode="&#xee;" horiz-adv-x="514" d="M-64 1156q61 100 119.5 198t118.5 198h144q-44 -67 -86.5 -133t-85.5 -131.5t-86 -131.5h-124zM174 0v213v225v100v164.5v146v143.5l166 6v-145.5v-148v-166.5v-100v-225v-213h-166zM191 1552h145q59 -99 118.5 -197.5t119.5 -200.5l-124 -2q-42 67 -85.5 133t-86 133 t-87.5 134z" />
<glyph unicode="&#xef;" horiz-adv-x="514" d="M-25 1323q0 57 29 87t78 30q48 0 76 -31.5t28 -85.5q0 -39 -13 -64.5t-36.5 -38.5t-56.5 -13q-48 0 -76.5 29t-28.5 87zM174 0v213v225v100v164.5v146v143.5l166 6v-145.5v-148v-166.5v-100v-225v-213h-166zM327 1323q0 57 29 87t77 30q49 0 77 -31.5t28 -85.5 q0 -39 -13 -64.5t-36.5 -38.5t-57.5 -13q-47 0 -75.5 29t-28.5 87z" />
<glyph unicode="&#xf0;" horiz-adv-x="1182" d="M100 486q0 136 54.5 244t151.5 171t227 63q54 0 112.5 -13t115.5 -41t108 -73l43 13q23 -48 28 -102t-14 -102q-62 77 -124.5 114.5t-117.5 49.5t-95 12q-107 0 -178.5 -48.5t-107 -126.5t-35.5 -167q0 -91 36.5 -173t109 -134t180.5 -52q161 0 239.5 130t78.5 367 q0 183 -63 336t-186 281q-52 57 -116.5 109t-139.5 100l137 58q72 -43 137.5 -94.5t122.5 -111.5q129 -135 203.5 -303.5t74.5 -388.5q0 -192 -53.5 -332.5t-161.5 -217t-271 -76.5q-162 0 -272.5 71t-167 187t-56.5 250zM309 1204q88 28 169 53t150 46l92 29 q68 21 148.5 46t169.5 53l35 -112q-87 -27 -168 -52t-150 -47l-92 -28q-69 -22 -150.5 -47t-168.5 -52z" />
<glyph unicode="&#xf1;" horiz-adv-x="1146" d="M172 0v213v225v100v225v229l144 10l5 -184h18q32 45 82 91t118 76.5t156 30.5q158 0 231 -91t73 -264v-115v-108v-222.5v-215.5h-165v214.5v216.5v188q0 119 -42.5 180t-153.5 61q-67 0 -122 -27t-99.5 -72.5t-79.5 -100.5v-229v-218.5v-212.5h-165zM232 1180 q0 130 51.5 199.5t139.5 69.5q59 0 102 -26t77 -60t66 -60t69 -26q57 0 79.5 37t24.5 105h101q0 -131 -50 -200.5t-136 -69.5q-60 0 -103.5 26t-78.5 60.5t-66.5 60t-67.5 25.5q-58 0 -81 -36.5t-26 -104.5h-101z" />
<glyph unicode="&#xf2;" horiz-adv-x="1195" d="M100 502q0 149 60.5 264.5t172 182.5t265.5 67q119 0 211 -39t156 -109t97 -163.5t33 -202.5q0 -147 -60 -266t-170.5 -188.5t-263.5 -69.5q-123 0 -216.5 42.5t-156.5 115.5t-95.5 167.5t-32.5 198.5zM269 502q0 -98 36.5 -185t110.5 -141t185 -54q109 0 181 54t108 141 t36 185q0 112 -40 195t-113 129t-173 46q-108 0 -182 -49t-111.5 -133t-37.5 -188zM289 1552l184 4q68 -99 136 -198.5t136 -201.5l-134 -2q-53 66 -106.5 131.5t-107 132.5t-108.5 134z" />
<glyph unicode="&#xf3;" horiz-adv-x="1195" d="M100 502q0 149 60.5 264.5t172 182.5t265.5 67q119 0 211 -39t156 -109t97 -163.5t33 -202.5q0 -147 -60 -266t-170.5 -188.5t-263.5 -69.5q-123 0 -216.5 42.5t-156.5 115.5t-95.5 167.5t-32.5 198.5zM269 502q0 -98 36.5 -185t110.5 -141t185 -54q109 0 181 54t108 141 t36 185q0 112 -40 195t-113 129t-173 46q-108 0 -182 -49t-111.5 -133t-37.5 -188zM449 1154q68 100 136.5 200t134.5 198l185 4q-55 -68 -109 -135t-107 -133l-106 -132z" />
<glyph unicode="&#xf4;" horiz-adv-x="1195" d="M100 502q0 149 60.5 264.5t172 182.5t265.5 67q119 0 211 -39t156 -109t97 -163.5t33 -202.5q0 -147 -60 -266t-170.5 -188.5t-263.5 -69.5q-123 0 -216.5 42.5t-156.5 115.5t-95.5 167.5t-32.5 198.5zM233 1156q67 98 135 197.5t136 198.5h181q68 -99 136 -198.5 t136 -199.5l-134 -2q-62 82 -124 161.5t-126 161.5h44q-63 -82 -124.5 -160.5t-125.5 -158.5h-134zM269 502q0 -98 36.5 -185t110.5 -141t185 -54q109 0 181 54t108 141t36 185q0 112 -40 195t-113 129t-173 46q-108 0 -182 -49t-111.5 -133t-37.5 -188z" />
<glyph unicode="&#xf5;" horiz-adv-x="1195" d="M100 502q0 149 60.5 264.5t172 182.5t265.5 67q119 0 211 -39t156 -109t97 -163.5t33 -202.5q0 -147 -60 -266t-170.5 -188.5t-263.5 -69.5q-123 0 -216.5 42.5t-156.5 115.5t-95.5 167.5t-32.5 198.5zM242 1180q0 130 51.5 199.5t139.5 69.5q59 0 102 -26t77 -60t66 -60 t69 -26q57 0 79.5 37t24.5 105h101q0 -131 -50 -200.5t-136 -69.5q-60 0 -103.5 26t-78.5 60.5t-66.5 60t-67.5 25.5q-58 0 -81 -36.5t-26 -104.5h-101zM269 502q0 -98 36.5 -185t110.5 -141t185 -54q109 0 181 54t108 141t36 185q0 112 -40 195t-113 129t-173 46 q-108 0 -182 -49t-111.5 -133t-37.5 -188z" />
<glyph unicode="&#xf6;" horiz-adv-x="1195" d="M100 502q0 149 60.5 264.5t172 182.5t265.5 67q119 0 211 -39t156 -109t97 -163.5t33 -202.5q0 -147 -60 -266t-170.5 -188.5t-263.5 -69.5q-123 0 -216.5 42.5t-156.5 115.5t-95.5 167.5t-32.5 198.5zM269 502q0 -98 36.5 -185t110.5 -141t185 -54q109 0 181 54t108 141 t36 185q0 112 -40 195t-113 129t-173 46q-108 0 -182 -49t-111.5 -133t-37.5 -188zM275 1323q0 57 30.5 87t80.5 30t79 -31.5t29 -85.5q0 -58 -29.5 -87t-80.5 -29q-49 0 -79 29t-30 87zM699 1323q0 57 30.5 87t80.5 30t79 -31.5t29 -85.5q0 -58 -29.5 -87t-80.5 -29 q-49 0 -79 29t-30 87z" />
<glyph unicode="&#xf7;" d="M124 524v147h182h164h197h164.5h181.5v-147h-181.5h-164.5h-197h-164h-182zM444 233q0 55 33.5 86.5t88.5 31.5q57 0 89.5 -31.5t32.5 -86.5q0 -53 -32.5 -86.5t-89.5 -33.5q-55 0 -88.5 33.5t-33.5 86.5zM444 961q0 55 33.5 87t88.5 32q57 0 89.5 -32t32.5 -87 q0 -53 -32.5 -86.5t-89.5 -33.5q-55 0 -88.5 33.5t-33.5 86.5z" />
<glyph unicode="&#xf8;" horiz-adv-x="1194" d="M100 502q0 149 60 264.5t172 182t267 66.5q118 0 210 -39t156 -108.5t97 -163t33 -202.5q0 -147 -60 -266t-170.5 -188.5t-263.5 -69.5q-123 0 -216 42.5t-156.5 115.5t-96 167.5t-32.5 198.5zM113 -62q78 101 146.5 190.5t146.5 191.5l288 377q83 108 152 198.5 t142 186.5l88 -64q-75 -97 -146 -190t-152 -198l-290 -379q-79 -104 -147.5 -194t-142.5 -186zM268 502q0 -98 37 -185t111 -141.5t184 -54.5t182 54.5t108 141.5t36 185q0 112 -40 195.5t-113 129t-173 45.5q-108 0 -182 -49.5t-112 -133.5t-38 -187z" />
<glyph unicode="&#xf9;" horiz-adv-x="1117" d="M147 333v114.5v95.5v163.5v143.5v142l165 7v-216v-223v-188q0 -118 43 -179.5t153 -61.5q64 0 117 27.5t97 72.5t80 100v229v220v212h165v-214v-235v-105v-225v-213h-144l-6 175h-18q-31 -45 -80.5 -90.5t-116.5 -76t-151 -30.5q-158 0 -231 91t-73 264zM250 1552l184 4 q68 -99 136 -198.5t136 -201.5l-134 -2q-53 66 -106.5 131.5t-107 132.5t-108.5 134z" />
<glyph unicode="&#xfa;" horiz-adv-x="1117" d="M147 333v114.5v95.5v163.5v143.5v142l165 7v-216v-223v-188q0 -118 43 -179.5t153 -61.5q64 0 117 27.5t97 72.5t80 100v229v220v212h165v-214v-235v-105v-225v-213h-144l-6 175h-18q-31 -45 -80.5 -90.5t-116.5 -76t-151 -30.5q-158 0 -231 91t-73 264zM410 1154 q68 100 136.5 200t134.5 198l185 4q-55 -68 -109 -135t-107 -133l-106 -132z" />
<glyph unicode="&#xfb;" horiz-adv-x="1117" d="M147 333v114.5v95.5v163.5v143.5v142l165 7v-216v-223v-188q0 -118 43 -179.5t153 -61.5q64 0 117 27.5t97 72.5t80 100v229v220v212h165v-214v-235v-105v-225v-213h-144l-6 175h-18q-31 -45 -80.5 -90.5t-116.5 -76t-151 -30.5q-158 0 -231 91t-73 264zM194 1156 q67 98 135 197.5t136 198.5h181q68 -99 136 -198.5t136 -199.5l-134 -2q-62 82 -124 161.5t-126 161.5h44q-63 -82 -124.5 -160.5t-125.5 -158.5h-134z" />
<glyph unicode="&#xfc;" horiz-adv-x="1117" d="M147 333v114.5v95.5v163.5v143.5v142l165 7v-216v-223v-188q0 -118 43 -179.5t153 -61.5q64 0 117 27.5t97 72.5t80 100v229v220v212h165v-214v-235v-105v-225v-213h-144l-6 175h-18q-31 -45 -80.5 -90.5t-116.5 -76t-151 -30.5q-158 0 -231 91t-73 264zM236 1323 q0 57 30.5 87t80.5 30t79 -31.5t29 -85.5q0 -58 -29.5 -87t-80.5 -29q-49 0 -79 29t-30 87zM660 1323q0 57 30.5 87t80.5 30t79 -31.5t29 -85.5q0 -58 -29.5 -87t-80.5 -29q-49 0 -79 29t-30 87z" />
<glyph unicode="&#xfd;" horiz-adv-x="1035" d="M50 992l177 7l84 -252t84 -251l105 -319h18l115 320q45 125 89 248t89 247h175q-32 -80 -61.5 -154.5t-65 -164.5t-84.5 -214l-110 -279l-127.5 -323t-95.5 -241l-174 -6q40 98 80 198t80 198v-42q-38 102 -76 207t-75 204l-66 180q-39 107 -80.5 219t-80.5 218z M370 1154q68 100 136.5 200t134.5 198l185 4q-55 -68 -109 -135t-107 -133l-106 -132z" />
<glyph unicode="&#xfe;" horiz-adv-x="1183" d="M172 54v933v245v232l165 20v-241.5v-255.5v-110h18q28 35 72.5 67t103 52t128.5 20q134 0 228.5 -67.5t144.5 -184.5t50 -265q0 -139 -46.5 -257.5t-141 -191t-236.5 -72.5q-66 0 -122 17.5t-101.5 50t-82.5 79.5h-15v-78v-218.5v-212.5l-165 -6v215.5v228.5zM337 288 q30 -51 69.5 -87t89.5 -55.5t112 -19.5q107 0 174.5 53t99 137.5t31.5 181.5q0 101 -33.5 184.5t-101.5 133.5t-173 50q-52 0 -102 -15.5t-92.5 -46t-73.5 -75.5v-441z" />
<glyph unicode="&#xff;" horiz-adv-x="1035" d="M50 992l177 7l84 -252t84 -251l105 -319h18l115 320q45 125 89 248t89 247h175q-32 -80 -61.5 -154.5t-65 -164.5t-84.5 -214l-110 -279l-127.5 -323t-95.5 -241l-174 -6q40 98 80 198t80 198v-42q-38 102 -76 207t-75 204l-66 180q-39 107 -80.5 219t-80.5 218z M196 1323q0 57 30.5 87t80.5 30t79 -31.5t29 -85.5q0 -58 -29.5 -87t-80.5 -29q-49 0 -79 29t-30 87zM620 1323q0 57 30.5 87t80.5 30t79 -31.5t29 -85.5q0 -58 -29.5 -87t-80.5 -29q-49 0 -79 29t-30 87z" />
<glyph unicode="&#x152;" horiz-adv-x="2170" d="M100 716q0 215 87 381.5t245.5 260.5t371.5 94q96 0 183 -17.5t159 -44.5t122 -55l-17 -174q-117 70 -224.5 100.5t-207.5 30.5q-152 0 -272 -70t-189.5 -199.5t-69.5 -307.5q0 -119 36 -224.5t107 -185.5t175 -125.5t241 -45.5q104 0 204.5 27.5t191.5 93.5l16 -175 q-58 -36 -128.5 -58.5t-147 -33t-152.5 -10.5q-172 0 -308 55t-230 154.5t-143.5 234t-49.5 294.5zM1168 0v229v242v479v245v231h886v-155h-214.5h-269.5h-325l101 129v-231.5v-244.5v-426v-241.5v-229.5l-91 128h330h247.5h224.5v-155h-889zM1306 647v151h277h238.5h192.5 v-151h-197.5h-234.5h-276z" />
<glyph unicode="&#x153;" horiz-adv-x="1862" d="M85 502q0 149 60 264.5t171 182t265 66.5q117 0 207 -39t152.5 -108.5t94.5 -163t32 -202.5q0 -147 -58 -266t-166.5 -188.5t-258.5 -69.5q-123 0 -216 42.5t-156 115.5t-95 167.5t-32 198.5zM254 502q0 -98 37 -185t110.5 -141.5t184.5 -54.5q109 0 181.5 54.5 t108 141.5t35.5 185q0 112 -39.5 195.5t-112.5 129t-173 45.5q-108 0 -182 -49.5t-112 -133.5t-38 -187zM922 502q0 150 54.5 266t157.5 181.5t246 65.5q126 0 216.5 -49t139.5 -143.5t49 -233.5q0 -37 -1.5 -66.5t-6.5 -59.5l-145 73q2 16 2.5 30.5t0.5 28.5 q0 141 -70 214.5t-183 73.5q-91 0 -156.5 -46.5t-101.5 -128.5t-36 -187v-23q0 -116 40.5 -200t121.5 -129.5t207 -45.5q47 0 99.5 7.5t104 23.5t98.5 42l7 -149q-38 -21 -88.5 -36.5t-110 -24t-126.5 -8.5q-178 0 -293 68t-170.5 186t-55.5 270zM990 463v118l686 6l101 -34 v-90h-787z" />
<glyph unicode="&#x178;" horiz-adv-x="1304" d="M55 1426h207q55 -96 94 -165t74 -130.5t77 -135.5l138 -243h18l134 234q45 79 81.5 143t76.5 133.5t94 163.5h203q-51 -87 -101.5 -172.5t-99.5 -168.5l-311 -528h-172l-311 527q-50 84 -96 162.5t-106 179.5zM332 1742q0 57 30.5 87t80.5 30t79 -31.5t29 -85.5 q0 -57 -29.5 -86.5t-80.5 -29.5q-49 0 -79 29.5t-30 86.5zM564 0v229v242v237h181v-237v-242v-229h-181zM756 1742q0 57 30.5 87t80.5 30t79 -31.5t29 -85.5q0 -57 -29.5 -86.5t-80.5 -29.5q-49 0 -79 29.5t-30 86.5z" />
<glyph unicode="&#x2c6;" horiz-adv-x="1200" d="M236 1156q67 98 135 197.5t136 198.5h181q68 -99 136 -198.5t136 -199.5l-134 -2q-62 82 -124 161.5t-126 161.5h44q-63 -82 -124.5 -160.5t-125.5 -158.5h-134z" />
<glyph unicode="&#x2dc;" horiz-adv-x="1200" d="M245 1180q0 130 51.5 199.5t139.5 69.5q59 0 102 -26t77 -60t66 -60t69 -26q57 0 79.5 37t24.5 105h101q0 -131 -50 -200.5t-136 -69.5q-60 0 -103.5 26t-78.5 60.5t-66.5 60t-67.5 25.5q-58 0 -81 -36.5t-26 -104.5h-101z" />
<glyph unicode="&#x2000;" horiz-adv-x="988" />
<glyph unicode="&#x2001;" horiz-adv-x="1976" />
<glyph unicode="&#x2002;" horiz-adv-x="988" />
<glyph unicode="&#x2003;" horiz-adv-x="1976" />
<glyph unicode="&#x2004;" horiz-adv-x="658" />
<glyph unicode="&#x2005;" horiz-adv-x="494" />
<glyph unicode="&#x2006;" horiz-adv-x="329" />
<glyph unicode="&#x2007;" horiz-adv-x="329" />
<glyph unicode="&#x2008;" horiz-adv-x="247" />
<glyph unicode="&#x2009;" horiz-adv-x="395" />
<glyph unicode="&#x200a;" horiz-adv-x="109" />
<glyph unicode="&#x2010;" horiz-adv-x="845" d="M124 521v148h157.5h141.5h142h157v-148h-157h-142h-141.5h-157.5z" />
<glyph unicode="&#x2011;" horiz-adv-x="845" d="M124 521v148h157.5h141.5h142h157v-148h-157h-142h-141.5h-157.5z" />
<glyph unicode="&#x2012;" horiz-adv-x="845" d="M124 521v148h157.5h141.5h142h157v-148h-157h-142h-141.5h-157.5z" />
<glyph unicode="&#x2013;" horiz-adv-x="1178" d="M124 523v144h182h164h238h165h182v-144h-182h-165h-238h-164h-182z" />
<glyph unicode="&#x2014;" horiz-adv-x="1576" d="M124 523v144h174.5h166h153.5h341h153.5h166h174.5v-144h-174.5h-166h-153.5h-341h-153.5h-166h-174.5z" />
<glyph unicode="&#x2018;" horiz-adv-x="460" d="M105 1072q0 62 16.5 123t45 117t65 103t75.5 80l91 3q-39 -56 -62 -112t-32.5 -117t-9.5 -132v-94.5v-97.5l-84 -6q-55 5 -80 42t-25 91z" />
<glyph unicode="&#x2019;" horiz-adv-x="460" d="M62 931q39 56 61.5 112t32.5 117t10 132v95v97l84 6q55 -4 80 -41.5t25 -91.5q0 -62 -16.5 -123t-45.5 -117t-65 -102.5t-75 -80.5z" />
<glyph unicode="&#x201a;" horiz-adv-x="460" d="M62 -314q39 56 61.5 112t32.5 117t10 132v95v97l84 6q55 -4 80 -41.5t25 -91.5q0 -62 -16.5 -123t-45.5 -117t-65 -102.5t-75 -80.5z" />
<glyph unicode="&#x201c;" horiz-adv-x="811" d="M105 1072q0 62 16.5 123t45 117t65 103t75.5 80l91 3q-39 -56 -62 -112t-32.5 -117t-9.5 -132v-94.5v-97.5l-84 -6q-55 5 -80 42t-25 91zM456 1072q0 62 16.5 123t45 117t64.5 103t76 80l91 3q-40 -56 -62.5 -112t-32 -117t-9.5 -132v-94.5v-97.5l-84 -6q-55 5 -80 42 t-25 91z" />
<glyph unicode="&#x201d;" horiz-adv-x="811" d="M62 931q39 56 61.5 112t32.5 117t10 132v95v97l84 6q55 -4 80 -41.5t25 -91.5q0 -62 -16.5 -123t-45.5 -117t-65 -102.5t-75 -80.5zM413 931q39 56 61.5 112t32.5 117t10 132v95v97l84 6q55 -4 80 -41.5t25 -91.5q0 -62 -16.5 -123t-45.5 -117t-65 -102.5t-75 -80.5z" />
<glyph unicode="&#x201e;" horiz-adv-x="811" d="M62 -314q39 56 61.5 112t32.5 117t10 132v95v97l84 6q55 -4 80 -41.5t25 -91.5q0 -62 -16.5 -123t-45.5 -117t-65 -102.5t-75 -80.5zM413 -314q39 56 61.5 112t32.5 117t10 132v95v97l84 6q55 -4 80 -41.5t25 -91.5q0 -62 -16.5 -123t-45.5 -117t-65 -102.5t-75 -80.5z " />
<glyph unicode="&#x2022;" horiz-adv-x="836" d="M167 596q0 71 30 127t86 88.5t135 32.5q78 0 134.5 -32.5t86.5 -88.5t30 -127t-30 -128t-86.5 -91t-135.5 -34t-134.5 34t-85.5 91t-30 128z" />
<glyph unicode="&#x2026;" horiz-adv-x="1417" d="M104 109q0 59 36 94t96 35q42 0 71 -16t45.5 -45t16.5 -68q0 -58 -35.5 -94.5t-97.5 -36.5q-41 0 -70.5 17t-45.5 46t-16 68zM576 109q0 59 36 94t96 35q42 0 71 -16t45.5 -45t16.5 -68q0 -58 -35.5 -94.5t-97.5 -36.5q-41 0 -70.5 17t-45.5 46t-16 68zM1049 109 q0 59 36 94t96 35q42 0 71 -16t45.5 -45t16.5 -68q0 -58 -35.5 -94.5t-97.5 -36.5q-41 0 -70.5 17t-45.5 46t-16 68z" />
<glyph unicode="&#x202f;" horiz-adv-x="395" />
<glyph unicode="&#x2039;" horiz-adv-x="676" d="M59 502q94 127 187.5 253.5t187.5 253.5l168 -10q-91 -122 -181.5 -244.5t-181.5 -245.5v-17q91 -122 181.5 -243.5t181.5 -243.5l-168 -9q-94 127 -187.5 253.5t-187.5 252.5z" />
<glyph unicode="&#x203a;" horiz-adv-x="676" d="M75 6q91 122 181 244.5t181 244.5v18q-91 122 -181 243.5t-181 243.5l168 9q94 -127 187 -253.5t187 -253.5q-94 -126 -187 -252.5t-187 -253.5z" />
<glyph unicode="&#x205f;" horiz-adv-x="494" />
<glyph unicode="&#x20ac;" horiz-adv-x="1404" d="M60 482v111h181h165h280h164.5h181.5v-111h-181.5h-164.5h-280h-165h-181zM60 762v111h181h165h340h164.5h181.5v-111h-181.5h-164.5h-340h-165h-181zM220 689q0 207 79 367t224.5 250.5t344.5 90.5q66 0 128.5 -9t118.5 -23t104 -31t84 -34l-16 -162q-72 39 -142.5 62 t-136.5 33t-125 10q-146 0 -254.5 -67.5t-168.5 -192t-60 -295.5q0 -115 30.5 -216.5t93.5 -178.5t159 -121t226 -44q60 0 123 8.5t126.5 29.5t123.5 60l13 -160q-42 -25 -90.5 -41.5t-101 -27t-105.5 -15t-104 -4.5q-160 0 -285.5 53t-212 149t-131.5 225.5t-45 283.5z" />
<glyph unicode="&#x2122;" horiz-adv-x="1729" d="M37 1311v115h654v-115h-95.5h-117.5h-104l56 96v-129v-138v-249v-135.5v-127.5h-130v127.5v135.5v249v138v129l56 -96h-105h-117h-97zM753 628q9 72 17 135t17 135l32 258q9 72 17 135t17 135h131q30 -74 60.5 -148t57.5 -144l118 -291h10l114 289q29 71 57.5 143.5 t59.5 150.5h132q8 -64 16.5 -134t16.5 -135l32 -262q9 -64 17.5 -133.5t15.5 -133.5h-124q-11 84 -22 175.5t-21 175.5l-27 221h-10l-91 -241q-31 -80 -62.5 -164t-63.5 -167h-88q-32 83 -66 168t-66 166l-94 238h-10l-27 -223q-10 -82 -21 -173.5t-21 -175.5h-124z" />
</font>
</defs>
</svg>
